<?xml version="1.0" encoding="utf-8"?>
<svg id="master-artboard" viewBox="0 0 752.5504150390625 697.6500244140625" version="1.1" xmlns="http://www.w3.org/2000/svg" x="0px" y="0px" style="enable-background:new 0 0 2400 2400;" width="752.5504150390625px" height="697.6500244140625px"><rect id="ee-background" x="0" y="0" width="752.5504150390625" height="697.6500244140625" style="fill: white; fill-opacity: 0; pointer-events: none;"/>


<path d="M 1568.5 1518.699951 A 113 113 0 0 1 1455.5 1631.699951 A 113 113 0 0 1 1342.5 1518.699951 A 113 113 0 0 1 1455.5 1405.699951 A 113 113 0 0 1 1568.5 1518.699951 Z" class="st27" style="fill: rgb(86, 165, 70); stroke: rgb(51, 51, 51); stroke-width: 9;" transform="matrix(1, 0, 0, 1, -1317.608486175537, -1361.089506149292)"/>

<path d="M 1568.5 1518.699951 A 113 113 0 0 1 1455.5 1631.699951 A 113 113 0 0 1 1342.5 1518.699951 A 113 113 0 0 1 1455.5 1405.699951 A 113 113 0 0 1 1568.5 1518.699951 Z" class="st27" style="fill: rgb(86, 165, 70); stroke: rgb(51, 51, 51); stroke-width: 9;" transform="matrix(0.7084934115409851, 0, 0, 0.7084934115409851, -801.8064842224121, -693.1784343719482)"/><path d="M 1568.5 1518.699951 A 113 113 0 0 1 1455.5 1631.699951 A 113 113 0 0 1 1342.5 1518.699951 A 113 113 0 0 1 1455.5 1405.699951 A 113 113 0 0 1 1568.5 1518.699951 Z" class="st27" style="fill: rgb(86, 165, 70); stroke: rgb(51, 51, 51); stroke-width: 9;" transform="matrix(0.4169878661632538, 0, 0, 0.4169878661632538, -274.30739974975586, -401.9938335418701)"/><path d="M 1568.5 1518.699951 A 113 113 0 0 1 1455.5 1631.699951 A 113 113 0 0 1 1342.5 1518.699951 A 113 113 0 0 1 1455.5 1405.699951 A 113 113 0 0 1 1568.5 1518.699951 Z" class="st27" style="fill: rgb(86, 165, 70); stroke: rgb(51, 51, 51); stroke-width: 9;" transform="matrix(0.5433068871498108, 0, 0, 0.5433068871498108, -380.2062644958496, -476.34786796569824)"/><path d="M 1568.5 1518.699951 A 113 113 0 0 1 1455.5 1631.699951 A 113 113 0 0 1 1342.5 1518.699951 A 113 113 0 0 1 1455.5 1405.699951 A 113 113 0 0 1 1568.5 1518.699951 Z" class="st27" style="fill: rgb(86, 165, 70); stroke: rgb(51, 51, 51); stroke-width: 9;" transform="matrix(0.7279273867607117, 0, 0, 0.7279273867607117, -566.5709495544434, -997.1946086883545)"/><path d="M 1568.5 1518.699951 A 113 113 0 0 1 1455.5 1631.699951 A 113 113 0 0 1 1342.5 1518.699951 A 113 113 0 0 1 1455.5 1405.699951 A 113 113 0 0 1 1568.5 1518.699951 Z" class="st27" style="fill: rgb(86, 165, 70); stroke: rgb(51, 51, 51); stroke-width: 9;" transform="matrix(1, 0, 0, 1, -1052.6090965270996, -960.2083415985107)"/><path d="M 1568.5 1518.699951 A 113 113 0 0 1 1455.5 1631.699951 A 113 113 0 0 1 1342.5 1518.699951 A 113 113 0 0 1 1455.5 1405.699951 A 113 113 0 0 1 1568.5 1518.699951 Z" class="st27" style="fill: rgb(86, 165, 70); stroke: rgb(51, 51, 51); stroke-width: 9;" transform="matrix(1, 0, 0, 1, -841.7918357849121, -1223.7300090789795)"/></svg>