<svg data-v-fde0c5aa="" xmlns="http://www.w3.org/2000/svg" viewBox="0 0 300 300" class="iconAbove"><!----><defs data-v-fde0c5aa=""><!----></defs><rect data-v-fde0c5aa="" fill="#DDEBFB" x="0" y="0" width="300px" height="300px" class="logo-background-square"></rect><defs data-v-fde0c5aa=""><!----></defs><g data-v-fde0c5aa="" id="fe6593c3-e3c7-44d8-aefa-30648de776c5" fill="#262C4C" transform="matrix(1.7947123723207463,0,0,1.7947123723207463,18.887278320603254,163.90853900580996)"><path d="M6.58 4.20L3.28 4.20L3.28 4.20Q3.25 5.08 3.25 5.96L3.25 5.96L3.25 5.96Q3.25 6.85 3.25 7.74L3.25 7.74L5.43 7.74L5.63 6.40L6.27 6.40L6.27 9.86L5.63 9.86L5.43 8.40L3.25 8.40L3.25 8.40Q3.25 9.39 3.25 10.31L3.25 10.31L3.25 10.31Q3.25 11.23 3.28 12.12L3.28 12.12L4.58 12.28L4.58 12.85L0.62 12.85L0.62 12.28L1.90 12.12L1.90 12.12Q1.93 11.24 1.93 10.34L1.93 10.34L1.93 10.34Q1.93 9.44 1.93 8.51L1.93 8.51L1.93 7.83L1.93 7.83Q1.93 6.92 1.93 6.02L1.93 6.02L1.93 6.02Q1.93 5.12 1.90 4.21L1.90 4.21L0.62 4.06L0.62 3.49L7.59 3.49L7.69 5.98L6.89 5.98L6.58 4.20ZM10.43 6.12L10.58 7.76L10.58 7.76Q10.95 6.92 11.49 6.45L11.49 6.45L11.49 6.45Q12.03 5.98 12.60 5.98L12.60 5.98L12.60 5.98Q12.91 5.98 13.20 6.14L13.20 6.14L13.20 6.14Q13.48 6.30 13.55 6.66L13.55 6.66L13.55 6.66Q13.55 7.01 13.31 7.22L13.31 7.22L13.31 7.22Q13.08 7.42 12.71 7.42L12.71 7.42L12.71 7.42Q12.28 7.42 11.91 7.07L11.91 7.07L11.82 6.97L11.82 6.97Q11.38 7.29 11.09 7.74L11.09 7.74L11.09 7.74Q10.79 8.18 10.60 8.81L10.60 8.81L10.60 9.91L10.60 9.91Q10.60 10.37 10.61 10.99L10.61 10.99L10.61 10.99Q10.61 11.61 10.63 12.14L10.63 12.14L11.77 12.35L11.77 12.85L8.39 12.85L8.39 12.35L9.39 12.17L9.39 12.17Q9.41 11.63 9.41 11.01L9.41 11.01L9.41 11.01Q9.42 10.39 9.42 9.91L9.42 9.91L9.42 9.20L9.42 9.20Q9.42 8.62 9.41 8.25L9.41 8.25L9.41 8.25Q9.39 7.87 9.38 7.45L9.38 7.45L8.27 7.32L8.27 6.83L10.22 5.98L10.43 6.12ZM15.50 8.86L18.05 8.86L18.05 8.86Q18.55 8.86 18.72 8.65L18.72 8.65L18.72 8.65Q18.89 8.44 18.89 8.13L18.89 8.13L18.89 8.13Q18.89 7.84 18.77 7.57L18.77 7.57L18.77 7.57Q18.65 7.29 18.45 7.08L18.45 7.08L18.45 7.08Q18.24 6.87 17.97 6.75L17.97 6.75L17.97 6.75Q17.70 6.62 17.37 6.62L17.37 6.62L17.37 6.62Q17.08 6.62 16.77 6.74L16.77 6.74L16.77 6.74Q16.45 6.86 16.19 7.13L16.19 7.13L16.19 7.13Q15.93 7.41 15.74 7.83L15.74 7.83L15.74 7.83Q15.55 8.26 15.50 8.86L15.50 8.86ZM19.95 9.46L15.47 9.46L15.47 9.46Q15.50 10.77 16.11 11.47L16.11 11.47L16.11 11.47Q16.73 12.17 17.74 12.17L17.74 12.17L17.74 12.17Q18.41 12.17 18.86 11.89L18.86 11.89L18.86 11.89Q19.31 11.61 19.68 11.16L19.68 11.16L20.02 11.42L20.02 11.42Q19.66 12.18 18.98 12.62L18.98 12.62L18.98 12.62Q18.30 13.06 17.33 13.06L17.33 13.06L17.33 13.06Q16.62 13.06 16.04 12.82L16.04 12.82L16.04 12.82Q15.47 12.59 15.06 12.13L15.06 12.13L15.06 12.13Q14.66 11.68 14.43 11.03L14.43 11.03L14.43 11.03Q14.21 10.39 14.21 9.59L14.21 9.59L14.21 9.59Q14.21 8.79 14.46 8.13L14.46 8.13L14.46 8.13Q14.71 7.46 15.15 6.99L15.15 6.99L15.15 6.99Q15.60 6.51 16.18 6.24L16.18 6.24L16.18 6.24Q16.77 5.98 17.43 5.98L17.43 5.98L17.43 5.98Q17.98 5.98 18.46 6.16L18.46 6.16L18.46 6.16Q18.94 6.34 19.29 6.69L19.29 6.69L19.29 6.69Q19.64 7.04 19.84 7.55L19.84 7.55L19.84 7.55Q20.05 8.05 20.05 8.68L20.05 8.68L20.05 8.68Q20.05 8.92 20.02 9.11L20.02 9.11L20.02 9.11Q19.99 9.31 19.95 9.46L19.95 9.46ZM27.79 12.15L28.77 12.35L28.77 12.85L25.52 12.85L25.52 12.35L26.56 12.15L26.56 12.15Q26.57 11.63 26.58 11.02L26.58 11.02L26.58 11.02Q26.59 10.40 26.59 9.91L26.59 9.91L26.59 8.68L26.59 8.68Q26.59 7.73 26.32 7.35L26.32 7.35L26.32 7.35Q26.05 6.97 25.44 6.97L25.44 6.97L25.44 6.97Q24.95 6.97 24.49 7.18L24.49 7.18L24.49 7.18Q24.04 7.39 23.51 7.85L23.51 7.85L23.51 9.91L23.51 9.91Q23.51 10.37 23.51 11.00L23.51 11.00L23.51 11.00Q23.52 11.62 23.53 12.15L23.53 12.15L24.51 12.35L24.51 12.85L21.27 12.85L21.27 12.35L22.30 12.15L22.30 12.15Q22.32 11.62 22.32 11.00L22.32 11.00L22.32 11.00Q22.33 10.39 22.33 9.91L22.33 9.91L22.33 9.20L22.33 9.20Q22.33 8.62 22.32 8.25L22.32 8.25L22.32 8.25Q22.30 7.87 22.29 7.45L22.29 7.45L21.18 7.32L21.18 6.83L23.13 5.98L23.34 6.12L23.45 7.25L23.45 7.25Q23.97 6.68 24.63 6.33L24.63 6.33L24.63 6.33Q25.30 5.98 25.97 5.98L25.97 5.98L25.97 5.98Q26.88 5.98 27.32 6.58L27.32 6.58L27.32 6.58Q27.76 7.18 27.76 8.57L27.76 8.57L27.76 9.91L27.76 9.91Q27.76 10.40 27.77 11.01L27.77 11.01L27.77 11.01Q27.78 11.62 27.79 12.15L27.79 12.15ZM35.25 11.07L35.60 11.26L35.60 11.26Q35.32 12.14 34.66 12.60L34.66 12.60L34.66 12.60Q33.99 13.06 32.98 13.06L32.98 13.06L32.98 13.06Q32.27 13.06 31.69 12.82L31.69 12.82L31.69 12.82Q31.11 12.57 30.69 12.11L30.69 12.11L30.69 12.11Q30.28 11.65 30.06 11.00L30.06 11.00L30.06 11.00Q29.85 10.35 29.85 9.55L29.85 9.55L29.85 9.55Q29.85 8.72 30.11 8.06L30.11 8.06L30.11 8.06Q30.38 7.39 30.83 6.93L30.83 6.93L30.83 6.93Q31.29 6.47 31.87 6.22L31.87 6.22L31.87 6.22Q32.45 5.98 33.08 5.98L33.08 5.98L33.08 5.98Q33.56 5.98 33.98 6.12L33.98 6.12L33.98 6.12Q34.41 6.26 34.74 6.50L34.74 6.50L34.74 6.50Q35.07 6.75 35.28 7.08L35.28 7.08L35.28 7.08Q35.49 7.41 35.56 7.80L35.56 7.80L35.56 7.80Q35.46 8.33 34.92 8.33L34.92 8.33L34.92 8.33Q34.57 8.33 34.40 8.14L34.40 8.14L34.40 8.14Q34.23 7.95 34.16 7.66L34.16 7.66L33.91 6.73L33.91 6.73Q33.71 6.66 33.52 6.64L33.52 6.64L33.52 6.64Q33.32 6.62 33.15 6.62L33.15 6.62L33.15 6.62Q32.24 6.62 31.66 7.34L31.66 7.34L31.66 7.34Q31.08 8.05 31.08 9.41L31.08 9.41L31.08 9.41Q31.08 10.75 31.70 11.46L31.70 11.46L31.70 11.46Q32.33 12.17 33.32 12.17L33.32 12.17L33.32 12.17Q33.92 12.17 34.43 11.89L34.43 11.89L34.43 11.89Q34.93 11.61 35.25 11.07L35.25 11.07ZM42.88 12.15L43.86 12.35L43.86 12.85L40.61 12.85L40.61 12.35L41.65 12.15L41.65 12.15Q41.66 11.63 41.67 11.02L41.67 11.02L41.67 11.02Q41.68 10.40 41.68 9.91L41.68 9.91L41.68 8.68L41.68 8.68Q41.68 7.73 41.41 7.35L41.41 7.35L41.41 7.35Q41.15 6.97 40.53 6.97L40.53 6.97L40.53 6.97Q40.03 6.97 39.56 7.19L39.56 7.19L39.56 7.19Q39.10 7.41 38.54 7.90L38.54 7.90L38.54 9.91L38.54 9.91Q38.54 10.37 38.55 11.00L38.55 11.00L38.55 11.00Q38.56 11.62 38.57 12.15L38.57 12.15L39.54 12.35L39.54 12.85L36.29 12.85L36.29 12.35L37.34 12.15L37.34 12.15Q37.35 11.62 37.36 11.00L37.36 11.00L37.36 11.00Q37.37 10.37 37.37 9.91L37.37 9.91L37.37 3.91L36.22 3.77L36.22 3.28L38.36 2.65L38.56 2.76L38.50 4.75L38.50 7.28L38.50 7.28Q39.02 6.69 39.70 6.33L39.70 6.33L39.70 6.33Q40.39 5.98 41.06 5.98L41.06 5.98L41.06 5.98Q41.97 5.98 42.41 6.58L42.41 6.58L42.41 6.58Q42.85 7.18 42.85 8.57L42.85 8.57L42.85 9.91L42.85 9.91Q42.85 10.40 42.86 11.01L42.86 11.01L42.86 11.01Q42.87 11.62 42.88 12.15L42.88 12.15ZM44.87 2.53L44.87 2.53L44.87 2.53Q45.19 2.53 45.39 2.74L45.39 2.74L45.39 2.74Q45.58 2.95 45.58 3.42L45.58 3.42L45.58 3.42Q45.58 3.63 45.55 3.96L45.55 3.96L45.55 3.96Q45.51 4.30 45.46 4.66L45.46 4.66L45.46 4.66Q45.40 5.03 45.35 5.36L45.35 5.36L45.35 5.36Q45.30 5.68 45.28 5.85L45.28 5.85L45.12 6.85L44.60 6.85L44.45 5.85L44.45 5.85Q44.42 5.68 44.37 5.36L44.37 5.36L44.37 5.36Q44.32 5.03 44.27 4.66L44.27 4.66L44.27 4.66Q44.21 4.30 44.18 3.96L44.18 3.96L44.18 3.96Q44.14 3.63 44.14 3.42L44.14 3.42L44.14 3.42Q44.14 2.95 44.34 2.74L44.34 2.74L44.34 2.74Q44.53 2.53 44.87 2.53ZM48.90 8.82L49.32 8.97L49.32 8.97Q50.39 9.37 50.81 9.88L50.81 9.88L50.81 9.88Q51.24 10.39 51.24 11.05L51.24 11.05L51.24 11.05Q51.24 11.44 51.07 11.80L51.07 11.80L51.07 11.80Q50.90 12.17 50.56 12.45L50.56 12.45L50.56 12.45Q50.22 12.73 49.71 12.89L49.71 12.89L49.71 12.89Q49.20 13.06 48.52 13.06L48.52 13.06L48.52 13.06Q47.92 13.06 47.44 12.93L47.44 12.93L47.44 12.93Q46.96 12.80 46.42 12.52L46.42 12.52L46.38 10.99L47.15 10.99L47.42 12.19L47.42 12.19Q47.91 12.42 48.55 12.42L48.55 12.42L48.55 12.42Q49.35 12.42 49.74 12.12L49.74 12.12L49.74 12.12Q50.13 11.83 50.13 11.34L50.13 11.34L50.13 11.34Q50.13 10.89 49.80 10.63L49.80 10.63L49.80 10.63Q49.48 10.36 48.80 10.11L48.80 10.11L48.16 9.87L48.16 9.87Q47.39 9.59 46.93 9.13L46.93 9.13L46.93 9.13Q46.47 8.68 46.47 8.01L46.47 8.01L46.47 8.01Q46.47 7.60 46.64 7.24L46.64 7.24L46.64 7.24Q46.82 6.87 47.13 6.59L47.13 6.59L47.13 6.59Q47.45 6.31 47.90 6.15L47.90 6.15L47.90 6.15Q48.36 5.98 48.92 5.98L48.92 5.98L48.92 5.98Q49.49 5.98 49.95 6.13L49.95 6.13L49.95 6.13Q50.41 6.27 50.88 6.55L50.88 6.55L50.82 7.98L50.09 7.98L49.88 6.86L49.88 6.86Q49.38 6.62 48.90 6.62L48.90 6.62L48.90 6.62Q48.26 6.62 47.93 6.90L47.93 6.90L47.93 6.90Q47.60 7.17 47.60 7.64L47.60 7.64L47.60 7.64Q47.60 8.06 47.89 8.31L47.89 8.31L47.89 8.31Q48.17 8.55 48.90 8.82L48.90 8.82ZM61.64 4.20L58.34 4.20L58.34 4.20Q58.31 5.08 58.31 5.96L58.31 5.96L58.31 5.96Q58.31 6.85 58.31 7.74L58.31 7.74L60.49 7.74L60.69 6.40L61.33 6.40L61.33 9.86L60.69 9.86L60.49 8.40L58.31 8.40L58.31 8.40Q58.31 9.39 58.31 10.31L58.31 10.31L58.31 10.31Q58.31 11.23 58.34 12.12L58.34 12.12L59.64 12.28L59.64 12.85L55.68 12.85L55.68 12.28L56.97 12.12L56.97 12.12Q56.99 11.24 56.99 10.34L56.99 10.34L56.99 10.34Q56.99 9.44 56.99 8.51L56.99 8.51L56.99 7.83L56.99 7.83Q56.99 6.92 56.99 6.02L56.99 6.02L56.99 6.02Q56.99 5.12 56.97 4.21L56.97 4.21L55.68 4.06L55.68 3.49L62.65 3.49L62.75 5.98L61.95 5.98L61.64 4.20ZM65.14 4.48L65.14 4.48L65.14 4.48Q64.74 4.48 64.47 4.23L64.47 4.23L64.47 4.23Q64.20 3.98 64.20 3.57L64.20 3.57L64.20 3.57Q64.20 3.16 64.47 2.92L64.47 2.92L64.47 2.92Q64.74 2.67 65.14 2.67L65.14 2.67L65.14 2.67Q65.55 2.67 65.81 2.92L65.81 2.92L65.81 2.92Q66.08 3.16 66.08 3.57L66.08 3.57L66.08 3.57Q66.08 3.98 65.81 4.23L65.81 4.23L65.81 4.23Q65.55 4.48 65.14 4.48ZM65.77 12.15L66.74 12.35L66.74 12.85L63.49 12.85L63.49 12.35L64.54 12.15L64.54 12.15Q64.55 11.62 64.56 11.00L64.56 11.00L64.56 11.00Q64.57 10.37 64.57 9.91L64.57 9.91L64.57 9.21L64.57 9.21Q64.57 8.64 64.55 8.25L64.55 8.25L64.55 8.25Q64.54 7.87 64.53 7.45L64.53 7.45L63.42 7.32L63.42 6.83L65.58 5.98L65.79 6.12L65.74 8.02L65.74 9.91L65.74 9.91Q65.74 10.37 65.75 11.00L65.75 11.00L65.75 11.00Q65.76 11.62 65.77 12.15L65.77 12.15ZM74.27 12.15L75.25 12.35L75.25 12.85L72.00 12.85L72.00 12.35L73.04 12.15L73.04 12.15Q73.05 11.63 73.06 11.02L73.06 11.02L73.06 11.02Q73.07 10.40 73.07 9.91L73.07 9.91L73.07 8.68L73.07 8.68Q73.07 7.73 72.80 7.35L72.80 7.35L72.80 7.35Q72.53 6.97 71.92 6.97L71.92 6.97L71.92 6.97Q71.43 6.97 70.97 7.18L70.97 7.18L70.97 7.18Q70.52 7.39 69.99 7.85L69.99 7.85L69.99 9.91L69.99 9.91Q69.99 10.37 69.99 11.00L69.99 11.00L69.99 11.00Q70 11.62 70.01 12.15L70.01 12.15L70.99 12.35L70.99 12.85L67.75 12.85L67.75 12.35L68.78 12.15L68.78 12.15Q68.80 11.62 68.80 11.00L68.80 11.00L68.80 11.00Q68.81 10.39 68.81 9.91L68.81 9.91L68.81 9.20L68.81 9.20Q68.81 8.62 68.80 8.25L68.80 8.25L68.80 8.25Q68.78 7.87 68.77 7.45L68.77 7.45L67.66 7.32L67.66 6.83L69.61 5.98L69.82 6.12L69.93 7.25L69.93 7.25Q70.45 6.68 71.11 6.33L71.11 6.33L71.11 6.33Q71.78 5.98 72.45 5.98L72.45 5.98L72.45 5.98Q73.36 5.98 73.80 6.58L73.80 6.58L73.80 6.58Q74.24 7.18 74.24 8.57L74.24 8.57L74.24 9.91L74.24 9.91Q74.24 10.40 74.25 11.01L74.25 11.01L74.25 11.01Q74.26 11.62 74.27 12.15L74.27 12.15ZM80.21 11.38L80.21 9.23L80.21 9.23Q79.84 9.32 79.50 9.44L79.50 9.44L79.50 9.44Q79.16 9.55 78.93 9.63L78.93 9.63L78.93 9.63Q78.47 9.81 78.20 10.00L78.20 10.00L78.20 10.00Q77.92 10.19 77.78 10.37L77.78 10.37L77.78 10.37Q77.64 10.56 77.60 10.74L77.60 10.74L77.60 10.74Q77.56 10.92 77.56 11.07L77.56 11.07L77.56 11.07Q77.56 11.35 77.64 11.52L77.64 11.52L77.64 11.52Q77.71 11.69 77.83 11.82L77.83 11.82L77.83 11.82Q78.15 12.14 78.68 12.14L78.68 12.14L78.68 12.14Q78.85 12.14 79.00 12.10L79.00 12.10L79.00 12.10Q79.16 12.07 79.32 11.98L79.32 11.98L79.32 11.98Q79.49 11.89 79.70 11.74L79.70 11.74L79.70 11.74Q79.91 11.59 80.21 11.38L80.21 11.38ZM82.45 11.94L82.73 12.25L82.73 12.25Q82.49 12.70 82.21 12.85L82.21 12.85L82.21 12.85Q81.93 12.99 81.59 12.99L81.59 12.99L81.59 12.99Q81.00 12.99 80.67 12.71L80.67 12.71L80.67 12.71Q80.33 12.42 80.23 11.94L80.23 11.94L80.23 11.94Q79.95 12.22 79.72 12.43L79.72 12.43L79.72 12.43Q79.48 12.64 79.24 12.78L79.24 12.78L79.24 12.78Q79.00 12.92 78.75 12.99L78.75 12.99L78.75 12.99Q78.50 13.06 78.19 13.06L78.19 13.06L78.19 13.06Q77.81 13.06 77.47 12.95L77.47 12.95L77.47 12.95Q77.13 12.84 76.87 12.61L76.87 12.61L76.87 12.61Q76.61 12.39 76.46 12.06L76.46 12.06L76.46 12.06Q76.31 11.73 76.31 11.30L76.31 11.30L76.31 11.30Q76.31 11.00 76.41 10.72L76.41 10.72L76.41 10.72Q76.51 10.44 76.76 10.19L76.76 10.19L76.76 10.19Q77.01 9.93 77.47 9.67L77.47 9.67L77.47 9.67Q77.92 9.41 78.64 9.16L78.64 9.16L78.64 9.16Q78.96 9.04 79.37 8.93L79.37 8.93L79.37 8.93Q79.79 8.81 80.21 8.69L80.21 8.69L80.21 8.32L80.21 8.32Q80.21 7.81 80.13 7.48L80.13 7.48L80.13 7.48Q80.05 7.15 79.90 6.96L79.90 6.96L79.90 6.96Q79.74 6.78 79.50 6.70L79.50 6.70L79.50 6.70Q79.25 6.62 78.90 6.62L78.90 6.62L78.90 6.62Q78.75 6.62 78.58 6.64L78.58 6.64L78.58 6.64Q78.40 6.65 78.19 6.69L78.19 6.69L77.91 7.67L77.91 7.67Q77.71 8.34 77.15 8.34L77.15 8.34L77.15 8.34Q76.86 8.34 76.69 8.18L76.69 8.18L76.69 8.18Q76.52 8.02 76.50 7.74L76.50 7.74L76.50 7.74Q76.69 6.94 77.42 6.46L77.42 6.46L77.42 6.46Q78.15 5.98 79.23 5.98L79.23 5.98L79.23 5.98Q80.33 5.98 80.86 6.54L80.86 6.54L80.86 6.54Q81.40 7.10 81.40 8.44L81.40 8.44L81.40 11.44L81.40 11.44Q81.40 12.26 81.86 12.26L81.86 12.26L81.86 12.26Q82.03 12.26 82.15 12.19L82.15 12.19L82.15 12.19Q82.28 12.11 82.38 12.03L82.38 12.03L82.45 11.94ZM89.84 12.15L90.82 12.35L90.82 12.85L87.57 12.85L87.57 12.35L88.61 12.15L88.61 12.15Q88.62 11.63 88.63 11.02L88.63 11.02L88.63 11.02Q88.63 10.40 88.63 9.91L88.63 9.91L88.63 8.68L88.63 8.68Q88.63 7.73 88.37 7.35L88.37 7.35L88.37 7.35Q88.10 6.97 87.49 6.97L87.49 6.97L87.49 6.97Q87.00 6.97 86.54 7.18L86.54 7.18L86.54 7.18Q86.09 7.39 85.55 7.85L85.55 7.85L85.55 9.91L85.55 9.91Q85.55 10.37 85.56 11.00L85.56 11.00L85.56 11.00Q85.57 11.62 85.58 12.15L85.58 12.15L86.56 12.35L86.56 12.85L83.31 12.85L83.31 12.35L84.35 12.15L84.35 12.15Q84.36 11.62 84.37 11.00L84.37 11.00L84.37 11.00Q84.38 10.39 84.38 9.91L84.38 9.91L84.38 9.20L84.38 9.20Q84.38 8.62 84.36 8.25L84.36 8.25L84.36 8.25Q84.35 7.87 84.34 7.45L84.34 7.45L83.23 7.32L83.23 6.83L85.18 5.98L85.39 6.12L85.50 7.25L85.50 7.25Q86.02 6.68 86.68 6.33L86.68 6.33L86.68 6.33Q87.35 5.98 88.02 5.98L88.02 5.98L88.02 5.98Q88.93 5.98 89.37 6.58L89.37 6.58L89.37 6.58Q89.81 7.18 89.81 8.57L89.81 8.57L89.81 9.91L89.81 9.91Q89.81 10.40 89.82 11.01L89.82 11.01L89.82 11.01Q89.82 11.62 89.84 12.15L89.84 12.15ZM97.30 11.07L97.65 11.26L97.65 11.26Q97.37 12.14 96.71 12.60L96.71 12.60L96.71 12.60Q96.04 13.06 95.03 13.06L95.03 13.06L95.03 13.06Q94.32 13.06 93.74 12.82L93.74 12.82L93.74 12.82Q93.16 12.57 92.74 12.11L92.74 12.11L92.74 12.11Q92.33 11.65 92.11 11.00L92.11 11.00L92.11 11.00Q91.90 10.35 91.90 9.55L91.90 9.55L91.90 9.55Q91.90 8.72 92.16 8.06L92.16 8.06L92.16 8.06Q92.43 7.39 92.88 6.93L92.88 6.93L92.88 6.93Q93.34 6.47 93.92 6.22L93.92 6.22L93.92 6.22Q94.50 5.98 95.13 5.98L95.13 5.98L95.13 5.98Q95.61 5.98 96.03 6.12L96.03 6.12L96.03 6.12Q96.46 6.26 96.79 6.50L96.79 6.50L96.79 6.50Q97.12 6.75 97.33 7.08L97.33 7.08L97.33 7.08Q97.54 7.41 97.61 7.80L97.61 7.80L97.61 7.80Q97.51 8.33 96.96 8.33L96.96 8.33L96.96 8.33Q96.61 8.33 96.45 8.14L96.45 8.14L96.45 8.14Q96.28 7.95 96.21 7.66L96.21 7.66L95.96 6.73L95.96 6.73Q95.76 6.66 95.56 6.64L95.56 6.64L95.56 6.64Q95.37 6.62 95.20 6.62L95.20 6.62L95.20 6.62Q94.29 6.62 93.71 7.34L93.71 7.34L93.71 7.34Q93.13 8.05 93.13 9.41L93.13 9.41L93.13 9.41Q93.13 10.75 93.75 11.46L93.75 11.46L93.75 11.46Q94.37 12.17 95.37 12.17L95.37 12.17L95.37 12.17Q95.97 12.17 96.47 11.89L96.47 11.89L96.47 11.89Q96.98 11.61 97.30 11.07L97.30 11.07ZM100.21 4.48L100.21 4.48L100.21 4.48Q99.81 4.48 99.54 4.23L99.54 4.23L99.54 4.23Q99.27 3.98 99.27 3.57L99.27 3.57L99.27 3.57Q99.27 3.16 99.54 2.92L99.54 2.92L99.54 2.92Q99.81 2.67 100.21 2.67L100.21 2.67L100.21 2.67Q100.62 2.67 100.88 2.92L100.88 2.92L100.88 2.92Q101.15 3.16 101.15 3.57L101.15 3.57L101.15 3.57Q101.15 3.98 100.88 4.23L100.88 4.23L100.88 4.23Q100.62 4.48 100.21 4.48ZM100.84 12.15L101.81 12.35L101.81 12.85L98.56 12.85L98.56 12.35L99.61 12.15L99.61 12.15Q99.62 11.62 99.63 11.00L99.63 11.00L99.63 11.00Q99.64 10.37 99.64 9.91L99.64 9.91L99.64 9.21L99.64 9.21Q99.64 8.64 99.62 8.25L99.62 8.25L99.62 8.25Q99.61 7.87 99.60 7.45L99.60 7.45L98.49 7.32L98.49 6.83L100.65 5.98L100.86 6.12L100.81 8.02L100.81 9.91L100.81 9.91Q100.81 10.37 100.82 11.00L100.82 11.00L100.82 11.00Q100.83 11.62 100.84 12.15L100.84 12.15ZM106.78 11.38L106.78 9.23L106.78 9.23Q106.41 9.32 106.07 9.44L106.07 9.44L106.07 9.44Q105.73 9.55 105.50 9.63L105.50 9.63L105.50 9.63Q105.04 9.81 104.77 10.00L104.77 10.00L104.77 10.00Q104.50 10.19 104.36 10.37L104.36 10.37L104.36 10.37Q104.22 10.56 104.17 10.74L104.17 10.74L104.17 10.74Q104.13 10.92 104.13 11.07L104.13 11.07L104.13 11.07Q104.13 11.35 104.21 11.52L104.21 11.52L104.21 11.52Q104.29 11.69 104.40 11.82L104.40 11.82L104.40 11.82Q104.72 12.14 105.25 12.14L105.25 12.14L105.25 12.14Q105.42 12.14 105.57 12.10L105.57 12.10L105.57 12.10Q105.73 12.07 105.90 11.98L105.90 11.98L105.90 11.98Q106.06 11.89 106.27 11.74L106.27 11.74L106.27 11.74Q106.48 11.59 106.78 11.38L106.78 11.38ZM109.02 11.94L109.30 12.25L109.30 12.25Q109.06 12.70 108.78 12.85L108.78 12.85L108.78 12.85Q108.50 12.99 108.16 12.99L108.16 12.99L108.16 12.99Q107.58 12.99 107.24 12.71L107.24 12.71L107.24 12.71Q106.90 12.42 106.81 11.94L106.81 11.94L106.81 11.94Q106.53 12.22 106.29 12.43L106.29 12.43L106.29 12.43Q106.05 12.64 105.81 12.78L105.81 12.78L105.81 12.78Q105.57 12.92 105.32 12.99L105.32 12.99L105.32 12.99Q105.07 13.06 104.76 13.06L104.76 13.06L104.76 13.06Q104.38 13.06 104.04 12.95L104.04 12.95L104.04 12.95Q103.70 12.84 103.44 12.61L103.44 12.61L103.44 12.61Q103.18 12.39 103.03 12.06L103.03 12.06L103.03 12.06Q102.89 11.73 102.89 11.30L102.89 11.30L102.89 11.30Q102.89 11.00 102.98 10.72L102.98 10.72L102.98 10.72Q103.08 10.44 103.33 10.19L103.33 10.19L103.33 10.19Q103.59 9.93 104.04 9.67L104.04 9.67L104.04 9.67Q104.50 9.41 105.21 9.16L105.21 9.16L105.21 9.16Q105.53 9.04 105.95 8.93L105.95 8.93L105.95 8.93Q106.36 8.81 106.78 8.69L106.78 8.69L106.78 8.32L106.78 8.32Q106.78 7.81 106.70 7.48L106.70 7.48L106.70 7.48Q106.62 7.15 106.47 6.96L106.47 6.96L106.47 6.96Q106.32 6.78 106.07 6.70L106.07 6.70L106.07 6.70Q105.83 6.62 105.48 6.62L105.48 6.62L105.48 6.62Q105.32 6.62 105.15 6.64L105.15 6.64L105.15 6.64Q104.97 6.65 104.76 6.69L104.76 6.69L104.48 7.67L104.48 7.67Q104.29 8.34 103.73 8.34L103.73 8.34L103.73 8.34Q103.43 8.34 103.26 8.18L103.26 8.18L103.26 8.18Q103.10 8.02 103.07 7.74L103.07 7.74L103.07 7.74Q103.26 6.94 103.99 6.46L103.99 6.46L103.99 6.46Q104.72 5.98 105.80 5.98L105.80 5.98L105.80 5.98Q106.90 5.98 107.44 6.54L107.44 6.54L107.44 6.54Q107.97 7.10 107.97 8.44L107.97 8.44L107.97 11.44L107.97 11.44Q107.97 12.26 108.43 12.26L108.43 12.26L108.43 12.26Q108.60 12.26 108.72 12.19L108.72 12.19L108.72 12.19Q108.85 12.11 108.95 12.03L108.95 12.03L109.02 11.94ZM112.08 12.15L113.19 12.35L113.19 12.85L109.75 12.85L109.75 12.35L110.85 12.15L110.85 12.15Q110.87 11.58 110.87 11.03L110.87 11.03L110.87 11.03Q110.88 10.47 110.88 9.91L110.88 9.91L110.88 3.91L109.73 3.77L109.73 3.28L111.92 2.65L112.11 2.76L112.06 4.75L112.06 9.91L112.06 9.91Q112.06 10.47 112.06 11.03L112.06 11.03L112.06 11.03Q112.07 11.59 112.08 12.15L112.08 12.15ZM120.08 12.19L121.32 12.19L121.32 12.19Q122.05 12.19 122.65 11.94L122.65 11.94L122.65 11.94Q123.24 11.68 123.66 11.17L123.66 11.17L123.66 11.17Q124.08 10.65 124.31 9.91L124.31 9.91L124.31 9.91Q124.54 9.16 124.54 8.18L124.54 8.18L124.54 8.18Q124.54 7.20 124.31 6.44L124.31 6.44L124.31 6.44Q124.08 5.68 123.66 5.17L123.66 5.17L123.66 5.17Q123.23 4.66 122.63 4.40L122.63 4.40L122.63 4.40Q122.04 4.14 121.31 4.14L121.31 4.14L120.08 4.14L120.08 4.14Q120.05 5.05 120.05 5.97L120.05 5.97L120.05 5.97Q120.05 6.89 120.05 7.83L120.05 7.83L120.05 8.34L120.05 8.34Q120.05 9.38 120.05 10.32L120.05 10.32L120.05 10.32Q120.05 11.27 120.08 12.19L120.08 12.19ZM117.42 3.49L121.56 3.49L121.56 3.49Q122.53 3.49 123.35 3.79L123.35 3.79L123.35 3.79Q124.18 4.10 124.78 4.69L124.78 4.69L124.78 4.69Q125.38 5.28 125.73 6.15L125.73 6.15L125.73 6.15Q126.07 7.03 126.07 8.16L126.07 8.16L126.07 8.16Q126.07 9.30 125.69 10.17L125.69 10.17L125.69 10.17Q125.31 11.05 124.66 11.64L124.66 11.64L124.66 11.64Q124.01 12.24 123.14 12.54L123.14 12.54L123.14 12.54Q122.26 12.85 121.28 12.85L121.28 12.85L117.42 12.85L117.42 12.28L118.71 12.12L118.71 12.12Q118.73 11.23 118.73 10.30L118.73 10.30L118.73 10.30Q118.73 9.37 118.73 8.34L118.73 8.34L118.73 7.83L118.73 7.83Q118.73 6.92 118.73 6.02L118.73 6.02L118.73 6.02Q118.73 5.12 118.71 4.21L118.71 4.21L117.42 4.06L117.42 3.49ZM131.26 11.38L131.26 9.23L131.26 9.23Q130.90 9.32 130.56 9.44L130.56 9.44L130.56 9.44Q130.21 9.55 129.99 9.63L129.99 9.63L129.99 9.63Q129.53 9.81 129.25 10.00L129.25 10.00L129.25 10.00Q128.98 10.19 128.84 10.37L128.84 10.37L128.84 10.37Q128.70 10.56 128.66 10.74L128.66 10.74L128.66 10.74Q128.62 10.92 128.62 11.07L128.62 11.07L128.62 11.07Q128.62 11.35 128.70 11.52L128.70 11.52L128.70 11.52Q128.77 11.69 128.88 11.82L128.88 11.82L128.88 11.82Q129.21 12.14 129.74 12.14L129.74 12.14L129.74 12.14Q129.91 12.14 130.06 12.10L130.06 12.10L130.06 12.10Q130.21 12.07 130.38 11.98L130.38 11.98L130.38 11.98Q130.55 11.89 130.76 11.74L130.76 11.74L130.76 11.74Q130.97 11.59 131.26 11.38L131.26 11.38ZM133.50 11.94L133.78 12.25L133.78 12.25Q133.55 12.70 133.27 12.85L133.27 12.85L133.27 12.85Q132.99 12.99 132.65 12.99L132.65 12.99L132.65 12.99Q132.06 12.99 131.73 12.71L131.73 12.71L131.73 12.71Q131.39 12.42 131.29 11.94L131.29 11.94L131.29 11.94Q131.01 12.22 130.77 12.43L130.77 12.43L130.77 12.43Q130.54 12.64 130.30 12.78L130.30 12.78L130.30 12.78Q130.06 12.92 129.81 12.99L129.81 12.99L129.81 12.99Q129.56 13.06 129.25 13.06L129.25 13.06L129.25 13.06Q128.87 13.06 128.53 12.95L128.53 12.95L128.53 12.95Q128.18 12.84 127.93 12.61L127.93 12.61L127.93 12.61Q127.67 12.39 127.52 12.06L127.52 12.06L127.52 12.06Q127.37 11.73 127.37 11.30L127.37 11.30L127.37 11.30Q127.37 11.00 127.47 10.72L127.47 10.72L127.47 10.72Q127.57 10.44 127.82 10.19L127.82 10.19L127.82 10.19Q128.07 9.93 128.53 9.67L128.53 9.67L128.53 9.67Q128.98 9.41 129.70 9.16L129.70 9.16L129.70 9.16Q130.02 9.04 130.43 8.93L130.43 8.93L130.43 8.93Q130.84 8.81 131.26 8.69L131.26 8.69L131.26 8.32L131.26 8.32Q131.26 7.81 131.19 7.48L131.19 7.48L131.19 7.48Q131.11 7.15 130.96 6.96L130.96 6.96L130.96 6.96Q130.80 6.78 130.56 6.70L130.56 6.70L130.56 6.70Q130.31 6.62 129.96 6.62L129.96 6.62L129.96 6.62Q129.81 6.62 129.63 6.64L129.63 6.64L129.63 6.64Q129.46 6.65 129.25 6.69L129.25 6.69L128.97 7.67L128.97 7.67Q128.77 8.34 128.21 8.34L128.21 8.34L128.21 8.34Q127.92 8.34 127.75 8.18L127.75 8.18L127.75 8.18Q127.58 8.02 127.55 7.74L127.55 7.74L127.55 7.74Q127.75 6.94 128.48 6.46L128.48 6.46L128.48 6.46Q129.21 5.98 130.28 5.98L130.28 5.98L130.28 5.98Q131.39 5.98 131.92 6.54L131.92 6.54L131.92 6.54Q132.45 7.10 132.45 8.44L132.45 8.44L132.45 11.44L132.45 11.44Q132.45 12.26 132.92 12.26L132.92 12.26L132.92 12.26Q133.08 12.26 133.21 12.19L133.21 12.19L133.21 12.19Q133.34 12.11 133.43 12.03L133.43 12.03L133.50 11.94ZM138.05 11.87L138.39 12.25L138.39 12.25Q138.12 12.60 137.70 12.80L137.70 12.80L137.70 12.80Q137.27 12.99 136.74 12.99L136.74 12.99L136.74 12.99Q136.00 12.99 135.57 12.61L135.57 12.61L135.57 12.61Q135.14 12.22 135.14 11.40L135.14 11.40L135.14 11.40Q135.14 11.13 135.15 10.87L135.15 10.87L135.15 10.87Q135.16 10.61 135.16 10.21L135.16 10.21L135.16 6.97L133.99 6.97L133.99 6.36L135.24 6.20L135.59 4.30L136.44 4.30L136.37 6.23L138.25 6.23L138.25 6.97L136.35 6.97L136.35 11.23L136.35 11.23Q136.35 11.77 136.55 12.02L136.55 12.02L136.55 12.02Q136.75 12.26 137.12 12.26L137.12 12.26L137.12 12.26Q137.54 12.26 138.05 11.87L138.05 11.87ZM142.97 11.38L142.97 9.23L142.97 9.23Q142.60 9.32 142.26 9.44L142.26 9.44L142.26 9.44Q141.92 9.55 141.69 9.63L141.69 9.63L141.69 9.63Q141.23 9.81 140.96 10.00L140.96 10.00L140.96 10.00Q140.69 10.19 140.55 10.37L140.55 10.37L140.55 10.37Q140.41 10.56 140.36 10.74L140.36 10.74L140.36 10.74Q140.32 10.92 140.32 11.07L140.32 11.07L140.32 11.07Q140.32 11.35 140.40 11.52L140.40 11.52L140.40 11.52Q140.48 11.69 140.59 11.82L140.59 11.82L140.59 11.82Q140.91 12.14 141.44 12.14L141.44 12.14L141.44 12.14Q141.61 12.14 141.76 12.10L141.76 12.10L141.76 12.10Q141.92 12.07 142.09 11.98L142.09 11.98L142.09 11.98Q142.25 11.89 142.46 11.74L142.46 11.74L142.46 11.74Q142.67 11.59 142.97 11.38L142.97 11.38ZM145.21 11.94L145.49 12.25L145.49 12.25Q145.25 12.70 144.97 12.85L144.97 12.85L144.97 12.85Q144.69 12.99 144.35 12.99L144.35 12.99L144.35 12.99Q143.77 12.99 143.43 12.71L143.43 12.71L143.43 12.71Q143.09 12.42 143.00 11.94L143.00 11.94L143.00 11.94Q142.72 12.22 142.48 12.43L142.48 12.43L142.48 12.43Q142.24 12.64 142.00 12.78L142.00 12.78L142.00 12.78Q141.76 12.92 141.51 12.99L141.51 12.99L141.51 12.99Q141.26 13.06 140.95 13.06L140.95 13.06L140.95 13.06Q140.57 13.06 140.23 12.95L140.23 12.95L140.23 12.95Q139.89 12.84 139.63 12.61L139.63 12.61L139.63 12.61Q139.37 12.39 139.22 12.06L139.22 12.06L139.22 12.06Q139.08 11.73 139.08 11.30L139.08 11.30L139.08 11.30Q139.08 11.00 139.17 10.72L139.17 10.72L139.17 10.72Q139.27 10.44 139.52 10.19L139.52 10.19L139.52 10.19Q139.78 9.93 140.23 9.67L140.23 9.67L140.23 9.67Q140.69 9.41 141.40 9.16L141.40 9.16L141.40 9.16Q141.72 9.04 142.13 8.93L142.13 8.93L142.13 8.93Q142.55 8.81 142.97 8.69L142.97 8.69L142.97 8.32L142.97 8.32Q142.97 7.81 142.89 7.48L142.89 7.48L142.89 7.48Q142.81 7.15 142.66 6.96L142.66 6.96L142.66 6.96Q142.51 6.78 142.26 6.70L142.26 6.70L142.26 6.70Q142.02 6.62 141.67 6.62L141.67 6.62L141.67 6.62Q141.51 6.62 141.34 6.64L141.34 6.64L141.34 6.64Q141.16 6.65 140.95 6.69L140.95 6.69L140.67 7.67L140.67 7.67Q140.48 8.34 139.92 8.34L139.92 8.34L139.92 8.34Q139.62 8.34 139.45 8.18L139.45 8.18L139.45 8.18Q139.29 8.02 139.26 7.74L139.26 7.74L139.26 7.74Q139.45 6.94 140.18 6.46L140.18 6.46L140.18 6.46Q140.91 5.98 141.99 5.98L141.99 5.98L141.99 5.98Q143.09 5.98 143.63 6.54L143.63 6.54L143.63 6.54Q144.16 7.10 144.16 8.44L144.16 8.44L144.16 11.44L144.16 11.44Q144.16 12.26 144.62 12.26L144.62 12.26L144.62 12.26Q144.79 12.26 144.91 12.19L144.91 12.19L144.91 12.19Q145.04 12.11 145.14 12.03L145.14 12.03L145.21 11.94Z"></path></g><defs data-v-fde0c5aa=""><linearGradient data-v-fde0c5aa="" gradientTransform="rotate(25)" id="ed78267b-c309-4cec-9378-e8d2dc597fdf" x1="0%" y1="0%" x2="100%" y2="0%"><stop data-v-fde0c5aa="" offset="0%" stop-color="#E90DDA" stop-opacity="1"></stop><stop data-v-fde0c5aa="" offset="100%" stop-color="#15CFF1" stop-opacity="1"></stop></linearGradient></defs><g data-v-fde0c5aa="" id="1609fae4-dbc4-4653-bd70-662704c7b39a" stroke="none" fill="url(#ed78267b-c309-4cec-9378-e8d2dc597fdf)" transform="matrix(0.7081675726096971,0,0,0.7081675726096971,115.69277927560098,95.03111404522454)"><path d="M89.5 48.3c.6.7 1 1.4 1.3 1.8 0 0 0 .1.1.1 0 0 0 .1.1.1.1.1.2.2.2.4-1.7-6.7-5.4-8.9-7.1-9.6 0-.2-.1-.3-.1-.5 1.7.4 4.9 1.3 5.8 2.2 1.3 1.2 1.7 2.3 1.7 2.3s-.8-5-4.8-6.3c-1.9-.6-3.1-1.3-3.8-1.7 0 0-.2-3-7.7-7.5-7.5-4.6-15.5-4.8-16.2-4.7 0 0-8.6.9-13 6.1-4.4 5.2-7.4 9.7-10.5 11-3 1.3-5.3 5.5-7.8 6.4-2.4.9-2.9.7-4.5 2.3 0 0-1.3 1.5-2.4 3-1.1 1.5-5 1.5-5.9 1.4-1.4-.2-2.5-2.2-2.5-2.2-.9-1.1-.1-.2-1.4-1.5-2.2-2.1-4.2.5-4.2.5l1.4.5s-1.3.1-1.5.1c-.5 0-1.1-.1-1.3-.3 0 0-.2 1.5 1.2 1.7.8.1 1.2.1 1.5.1l-1.2.2s.1 0 .3.1c.3.1.7.2 1 .1h.1c.7-.2 1.6-.4 2.4 0 .8.4 1.4 1.6 2.8 2.1 1.8.6 2.2.5 4.4.3 2.6-.3 2.4-.5 3.6-1 0 0 1.2-.7 1.9-1.5 0-.1.1-.1.1-.2.2-.3.7-.8 1.4-.8 0 0-1.2 2.9 1.3 5.6 0 0 0 .1.1.1.2.2.5 1-.6 2.7-.1.1-.1.2-.2.2-.2.1-2.1 2.3-1.6 4.5s-1.4 2.8-1.4 2.8.2.4.4 1c0 .1.1.3.1.4.5 1.8 1 4.4 1 5v.1l-.3 2.2c3.5.8 5.2 0 5.2 0 1-1.9.2-3.2.2-3.2s-1 .5-1.9-2.4c0 0 .8-2.9 1.4-3.9 0-.1.2-.2.5-.4.2-.2.5-.3.9-.5 0 0 3.9-1.8 4.4-2.2 1.1-.6 1.9-1.2 2.2-1.9l1.8-1.8s3.8-3.8 5.8-4.7c.1 0 .2-.1.3-.1.1 0 .3-.1.4-.1.7-.2 1.4-.4 2.1-.7l.9-.3c.3-.1.6-.2.8-.2.4-.1.8-.2 1.3-.2 2 .2 5.5-.3 11.8-3.3 0 0 2.4.4 3.3-.3 0 0-1.7 1.8-1.9 2.5 0 0-.3.5-2.1.4 0 0 .2 0-1.9-.3 0 0 0 .1-.1.2h-.7V58c0 .9 0 1.6.1 1.7.2.1.4.1.6 0h.1s1.6-.4 2.7-1.1c.1-.1.3-.1.4-.2.8-.5.3-1.1 4-1.2 0 0 2.7-4.1 3.8-4.8 0 0 1.5-1 2.2-2.1.6 1.1.9 1.6 1.1 1.8 0 0-.1 0-.1.1-.1.2 0 .6 0 .6 0 .6-.2.8-.4.9 0 0-.1 0-.1.1h-.1c-.1.1-.1.1.1.4.6.7 1.7.2 2.2-.2.6-.3 1.2 1.4 1.3 1.6.1.2 1.2 1.1 2 .4.8-.7.5-.7.4-.8l.2-.5c.7-1.4 2.8-5 3.8-6 .2-.2.5-.6.6-.9.5-.7.8-2.4.8-2.4 0-.1 0-.2.1-.3 1.2.4 2.2.5 2.2.5.1-.1 1.4.6 3.1 2.7zM65 51.5z"></path></g><!----></svg>