<?xml version="1.0" encoding="utf-8"?>
<svg id="master-artboard" viewBox="0 0 176.86480712890625 261.0120849609375" version="1.1" xmlns="http://www.w3.org/2000/svg" x="0px" y="0px" style="enable-background:new 0 0 841.9 595.3;" width="176.86480712890625px" height="261.0120849609375px"><rect id="ee-background" x="0" y="0" width="176.86480712890625" height="261.0120849609375" style="fill: white; fill-opacity: 0; pointer-events: none;"/>



<g><g transform="matrix(0.9999999999999999, 0, 0, 0.9999999999999999, -1.4210854715202004e-14, -3.552713678800501e-15)"><g transform="matrix(0.9999999999999999, 0, 0, 0.9999999999999999, -1.4210854715202004e-14, -3.552713678800501e-15)"><g transform="matrix(0.9999999999999999, 0, 0, 0.9999999999999999, -1.4210854715202004e-14, -3.552713678800501e-15)"><g transform="matrix(0.9999999999999999, 0, 0, 0.9999999999999999, -1.4210854715202004e-14, -3.552713678800501e-15)"><path class="st5" d="M444.2,191l6.6,10.5h-12.5L444.2,191L444.2,191z M440.8,98.4l45-3.7l-45-5.9V98.4L440.8,98.4z M438.4,88.2&#10;&#9;&#9;&#9;l-0.7,0.5v15.4l0.7,0.5l0.5-0.5V88.7L438.4,88.2L438.4,88.2z M438.1,101.1c-1.6,0.2-2.4,1-2.4,2.4c0.2,1.6,1,2.5,2.4,2.5&#10;&#9;&#9;&#9;c1.6-0.2,2.5-1,2.5-2.5C440.4,102,439.6,101.1,438.1,101.1L438.1,101.1z M438.4,107.5l-6.4,15.2l-7.8,6.1h27.9l-7.6-6.1&#10;&#9;&#9;&#9;L438.4,107.5L438.4,107.5z M485.4,186.6c-2.4,0.2-3.6,1.4-3.4,3.7c0.2,2.3,1.3,3.4,3.4,3.4c2.3-0.2,3.4-1.3,3.4-3.4&#10;&#9;&#9;&#9;C488.6,187.8,487.5,186.6,485.4,186.6L485.4,186.6z M418.8,103.6l-0.5,0.5v40.4l0.5,0.5l0.7-0.5v-40.4L418.8,103.6L418.8,103.6z&#10;&#9;&#9;&#9; M441.3,131.7v6.6h-6.4v-6.6h-5.4v26.9h17.4v-26.9H441.3L441.3,131.7z M411.9,145.9h14.7l-7.6-14L411.9,145.9L411.9,145.9z&#10;&#9;&#9;&#9; M463.3,194.9l13.5-3.2l-13.5-3.4V194.9L463.3,194.9z M460.6,180.5c-2.1,0-3.2,1-3.2,2.9c0.2,2.1,1.2,3.2,3.2,3.2&#10;&#9;&#9;&#9;c2-0.3,2.9-1.4,2.9-3.2C463.6,181.4,462.6,180.5,460.6,180.5L460.6,180.5z M485.4,190.7l-6.9,47.7l-5.9,6.1h25l-5.4-5.9&#10;&#9;&#9;&#9;L485.4,190.7L485.4,190.7z M414.9,148.1v10.5h8.8v-10.5H414.9L414.9,148.1z M410.2,161.4v6.1c5.9,0,8.8,1.8,8.8,5.4h20.3&#10;&#9;&#9;&#9;c0-2.6,1.1-4.2,3.2-4.9c0.8-0.3,3-0.5,6.6-0.5v-6.1H410.2L410.2,161.4z M460.6,183.6l-0.5,0.7v45.5l0.5,0.5l0.5-0.5v-45.5&#10;&#9;&#9;&#9;L460.6,183.6L460.6,183.6z M435.9,203h17.9l-9.3-15.2L435.9,203L435.9,203z M450.4,199.8l-0.5,0.7v34.8l0.5,0.5l0.7-0.5v-34.8&#10;&#9;&#9;&#9;L450.4,199.8L450.4,199.8z M460.6,228.9c-2.1-0.3-3.6-0.7-4.4-1.2l4.2,6.9l4.6-6.9l-1.2,0.7L460.6,228.9L460.6,228.9z&#10;&#9;&#9;&#9; M403.1,172.4c-2.1,0.2-3.2,1.2-3.2,3.2c0.2,2.1,1.2,3.2,3.2,3.2c2.1-0.2,3.2-1.2,3.2-3.2C406.1,173.4,405.1,172.4,403.1,172.4&#10;&#9;&#9;&#9;L403.1,172.4z M405.6,185.6l9.5-2.4l-9.5-2.4V185.6L405.6,185.6z M419,175.8v56.5h20.1v-56.5H419L419,175.8z M403.1,177.5&#10;&#9;&#9;&#9;l-0.5,0.5v27.2l0.5,0.5l0.7-0.5V178L403.1,177.5L403.1,177.5z M403.1,201.5c-2.3,0.2-3.4,1.3-3.4,3.4c0.2,2.3,1.3,3.4,3.4,3.4&#10;&#9;&#9;&#9;c2.3-0.2,3.4-1.3,3.4-3.4C406.4,202.6,405.2,201.5,403.1,201.5L403.1,201.5z M406.1,211.3l-2.9-5.4l-3.2,5.6&#10;&#9;&#9;&#9;c-2.8,3.6-6.2,6.7-10.3,9.3h25.5C411.2,218.4,408.2,215.2,406.1,211.3L406.1,211.3z M478.8,263.4l-4.2,69.5h21.3l-3.2-69.5H478.8&#10;&#9;&#9;&#9;L478.8,263.4z M396.7,223.3v8.8h12.5v-8.8H396.7L396.7,223.3z M437.6,295.5h36.2l1-14.7h-37.5L437.6,295.5L437.6,295.5z&#10;&#9;&#9;&#9; M373,224.8l12-2.9l-12-3.2V224.8L373,224.8z M385,228.9l-0.7,0.7v26.9l0.7,0.7l0.5-0.7v-26.9L385,228.9L385,228.9z M355.1,224.8&#10;&#9;&#9;&#9;l12-2.9l-12-3.2V224.8L355.1,224.8z M370.8,218.1l-0.5,0.5v27.2l0.5,0.5l0.5-0.5v-27.2L370.8,218.1L370.8,218.1z M437.6,333h33.3&#10;&#9;&#9;&#9;l2.2-32.1h-35.7L437.6,333L437.6,333z M409,236.5h50.2l-4.7,7.3H409v2h44.1l-4.4,6.6h-39.4v2.2h37.7l-4.6,6.9h-33.5v2.2h32.6&#10;&#9;&#9;&#9;l-4.7,6.9h-27.4v-36.5h-6.9v2.7h4.9v33.8H398v-33.8h6.1v-2.7h-7.6l-5.6,5.1v5.6l1.7,1.5c2.1,2.6,3.2,5.6,3.2,9.1v15.2h-9.1v-15.2&#10;&#9;&#9;&#9;c0-2.8,0.7-5.3,2.2-7.6l2-2.9v-5.4l-11.5,10.3l0.2,4.4l1.5,1.5c2.1,2.1,3.2,5.1,3.2,8.8v6.1h-9.1v-6.1c0-3.4,1.1-6.4,3.2-9.1&#10;&#9;&#9;&#9;l1.2-1.2l-0.2-4.4l-2,2c-3.9-5.7-5.9-11.3-5.9-16.6h-19.3l-2,6.6c-1.5,5.2-3.6,9.5-6.4,13h7.6v3.9l3.4,0.2v-4.2h14.4v5.4h-14.4&#10;&#9;&#9;&#9;v-2.9l-3.4,0.5l-3.2,75.4h57v-24.5l0.7-6.4h17.9l0.2-1h-18.1c1-2.6,2.3-4.8,3.9-6.6c3.1-3.3,6.8-4.9,11.3-4.9&#10;&#9;&#9;&#9;c7.2,0,12,3.8,14.4,11.5h-12v1h12.2c0.6,2.3,1,4.6,1,6.9l0.7,24l-0.2-46h-33.3v-5.6h33.3l0.2-10h5.1v4.4h4.9v-4.4h5.1v4.4h4.9&#10;&#9;&#9;&#9;v-4.4h5.4v4.4h5.4v-4.4h6.6l0.7-11h20.8l-2.2-12.5l-4.2,3.4l-5.1-3.4l-4.9,3.2l-4.2-3.2l-1.2,5.1l-14.4-18.6l-51.4-0.2V236.5&#10;&#9;&#9;&#9;L409,236.5z M421.2,272.3l-0.5,0.5V308l0.5,0.5l0.5-0.5v-35.2L421.2,272.3L421.2,272.3z M428.8,289.1l-0.5,0.5V308l0.5,0.5&#10;&#9;&#9;&#9;l0.7-0.5v-18.4L428.8,289.1L428.8,289.1z M352.7,218.1l-0.5,0.5v27.2l0.5,0.5l0.5-0.5v-27.2L352.7,218.1L352.7,218.1z&#10;&#9;&#9;&#9; M413.6,289.1l-0.5,0.5V308l0.5,0.5l0.7-0.5v-18.4L413.6,289.1L413.6,289.1z" style="fill-rule: evenodd; clip-rule: evenodd; fill: rgb(86, 165, 70); stroke: rgb(51, 51, 51); stroke-width: 2;" transform="matrix(0.9999999999999999, 0, 0, 0.9999999999999999, -335.9842834472656, -77.65863037109375)"/></g></g></g></g></g><path d="M 103.35083770751953 44.78678512573242" style="fill: rgb(86, 165, 70); fill-opacity: 1; stroke: rgb(0, 0, 0); stroke-opacity: 1; stroke-width: 0; paint-order: fill;" transform="matrix(1, 0, 0, 1, 0, 0)"/>
</svg>