<?xml version="1.0" encoding="utf-8"?>
<svg id="master-artboard" viewBox="0 0 285.664794921875 282.8034973144531" version="1.1" xmlns="http://www.w3.org/2000/svg" x="0px" y="0px" style="enable-background:new 0 0 1400 980;" width="285.664794921875px" height="282.8034973144531px"><rect id="ee-background" x="0" y="0" width="285.664794921875" height="282.8034973144531" style="fill: white; fill-opacity: 0; pointer-events: none;"/>






<path d="M 836.099976 700.299988 A 138.5 138.5 0 0 1 697.599976 838.799988 A 138.5 138.5 0 0 1 559.099976 700.299988 A 138.5 138.5 0 0 1 697.599976 561.799988 A 138.5 138.5 0 0 1 836.099976 700.299988 Z" id="XMLID_383_" class="st0" style="fill: rgb(229, 229, 229);" transform="matrix(1, 0, 0, 1, -554.21959400177, -548.323673248291)"/><path d="M 836.099976 690.799988 A 138.5 138.5 0 0 1 697.599976 829.299988 A 138.5 138.5 0 0 1 559.099976 690.799988 A 138.5 138.5 0 0 1 697.599976 552.299988 A 138.5 138.5 0 0 1 836.099976 690.799988 Z" id="XMLID_59_" class="st1" style="fill: rgb(86, 165, 70);" transform="matrix(1, 0, 0, 1, -554.21959400177, -548.323673248291)"/><path id="XMLID_65_" class="st2" d="M732.7,660.2l-10.4-15.1l-3.1-4.5l-14-20.3c-0.7-1.1-2.4-1.1-3.1,0l-14,20.3l-13.5,19.6&#10;&#9;&#9;&#9;&#9;c-0.9,1.3,0,3,1.6,3h13v4.3v102.7c0,1.2,0.9,2.1,2.1,2.1h19.9h4.8c1.2,0,2.1-0.9,2.1-2.1V667.5v-4.3h13&#10;&#9;&#9;&#9;&#9;C732.6,663.2,733.5,661.5,732.7,660.2z" style="fill: rgb(67, 135, 50);" transform="matrix(1, 0, 0, 1, -554.21959400177, -548.323673248291)"/><path id="XMLID_167_" class="st2" d="M769.5,687l-10.2-14.8l-10.6-15.4c-0.6-0.9-2-0.9-2.7,0l-10.6,15.4L725.2,687&#10;&#9;&#9;&#9;&#9;c-0.7,1.1,0,2.5,1.3,2.5h7.9v4.3v76.7c0,1,0.8,1.7,1.7,1.7h22.3c1,0,1.7-0.8,1.7-1.7v-76.7v-4.3h7.9&#10;&#9;&#9;&#9;&#9;C769.4,689.5,770.2,688.1,769.5,687z" style="fill: rgb(67, 135, 50);" transform="matrix(1, 0, 0, 1, -554.21959400177, -548.323673248291)"/><path id="XMLID_176_" class="st2" d="M661.1,720.8c-0.2-0.2-0.4-0.4-0.7-0.6c0,0-0.6-0.9-0.5-2.4c0.1-1.6,1.1-3.9,4.4-6.6&#10;&#9;&#9;&#9;&#9;c0.2-0.2,0.3-0.5,0.3-0.7c0-0.2-0.1-0.3-0.2-0.5c-1.1-0.9-3.6-2.3-6.9-0.5c-0.4,0.2-0.8,0.1-1-0.3c-0.5-1-1.7-2.5-4.5-2.5&#10;&#9;&#9;&#9;&#9;s-4,1.5-4.5,2.5c-0.2,0.4-0.7,0.5-1,0.3c-3.3-1.8-5.7-0.4-6.9,0.5c-0.4,0.3-0.4,0.9,0,1.2c3.3,2.7,4.2,5,4.4,6.6&#10;&#9;&#9;&#9;&#9;c0.1,1.5-0.5,2.4-0.5,2.4c-0.2,0.2-0.4,0.4-0.7,0.6c-32.2,30.5-12.6,46.9-7,50.6c0.8,0.5,1.7,0.8,2.7,0.8H652h13.3&#10;&#9;&#9;&#9;&#9;c0.5,0,1-0.1,1.5-0.3c0.4-0.1,0.8-0.3,1.2-0.6C673.7,767.7,693.3,751.3,661.1,720.8z M656.5,721.7c-0.8,0.1-1.7,0.2-2.7,0.2&#10;&#9;&#9;&#9;&#9;C654.8,721.9,655.7,721.8,656.5,721.7c1-0.1,1.9-0.2,2.6-0.4C658.4,721.5,657.5,721.6,656.5,721.7z" style="fill: rgb(67, 135, 50);" transform="matrix(1, 0, 0, 1, -554.21959400177, -548.323673248291)"/><path id="XMLID_83_" class="st3" d="M732.7,655.7l-10.4-15.1l-3.1-4.5l-14-20.3c-0.7-1.1-2.4-1.1-3.1,0l-14,20.3l-13.5,19.6&#10;&#9;&#9;&#9;&#9;c-0.9,1.3,0,3,1.6,3h13v107c0,1.2,0.9,2.1,2.1,2.1h19.9h4.8c1.2,0,2.1-0.9,2.1-2.1v-107h13C732.6,658.6,733.5,656.9,732.7,655.7z&#10;&#9;&#9;&#9;&#9;" style="fill: rgb(255, 255, 255);" transform="matrix(1, 0, 0, 1, -554.21959400177, -548.323673248291)"/><path id="XMLID_84_" class="st3" d="M758.5,767.7h-22.3c-1,0-1.7-0.8-1.7-1.7v-82.7h25.8V766&#10;&#9;&#9;&#9;&#9;&#9;C760.3,766.9,759.5,767.7,758.5,767.7z" style="fill: rgb(255, 255, 255);" transform="matrix(1, 0, 0, 1, -554.21959400177, -548.323673248291)"/><path id="XMLID_89_" class="st3" d="M747.3,685h-20.8c-1.3,0-2.1-1.5-1.3-2.5l10.2-14.8l10.6-15.4c0.6-0.9,2-0.9,2.7,0&#10;&#9;&#9;&#9;&#9;&#9;l10.6,15.4l10.2,14.8c0.7,1.1,0,2.5-1.3,2.5H747.3z" style="fill: rgb(255, 255, 255);" transform="matrix(1, 0, 0, 1, -554.21959400177, -548.323673248291)"/><g id="XMLID_119_" transform="matrix(1, 0, 0, 1, -554.21959400177, -548.323673248291)">
					<g id="XMLID_124_">
						<path id="XMLID_131_" class="st3" d="M664.6,705.9c0-0.2-0.1-0.3-0.2-0.5c-1.1-0.9-3.6-2.3-6.9-0.5c-0.4,0.2-0.8,0.1-1-0.3&#10;&#9;&#9;&#9;&#9;&#9;&#9;&#9;c-0.5-1-1.7-2.5-4.5-2.5c-2.8,0-4,1.5-4.5,2.5c-0.2,0.4-0.7,0.5-1,0.3c-3.3-1.8-5.7-0.4-6.9,0.5c-0.4,0.3-0.4,0.9,0,1.2&#10;&#9;&#9;&#9;&#9;&#9;&#9;&#9;c3.3,2.7,4.2,5,4.4,6.6c1.5,0.5,3.9,0.9,8,0.9c1.7,0,3.1-0.1,4.3-0.2c0.1-1,0.3-2,0.7-3C658.3,708.2,664.3,706,664.6,705.9z" style="fill: rgb(255, 255, 255);"/>
						<path id="XMLID_130_" class="st0" d="M664.3,706.7c0.2-0.2,0.3-0.5,0.3-0.7c-0.3,0.1-6.3,2.2-7.5,5c-0.4,1-0.7,2.1-0.7,3&#10;&#9;&#9;&#9;&#9;&#9;&#9;&#9;c1.6-0.2,2.8-0.5,3.6-0.7C660.1,711.6,661,709.3,664.3,706.7z" style="fill: rgb(229, 229, 229);"/>
						<path id="XMLID_128_" class="st3" d="M674.2,742.6c-3.1-13.7-17.7-25.4-17.7-25.4s0,0,0,0c-0.8,0.1-1.7,0.2-2.7,0.2&#10;&#9;&#9;&#9;&#9;&#9;&#9;&#9;c0.1,1.7,0.6,4.6,2.6,6.4c0.5,0.5,0.6,1.3,0.1,1.8c-0.3,0.3-0.6,0.4-1,0.4c-0.3,0-0.6-0.1-0.9-0.3c-2.5-2.3-3.2-5.6-3.4-7.8&#10;&#9;&#9;&#9;&#9;&#9;&#9;&#9;c-0.7,1.4-1.9,3.5-3.9,4.5c-0.2,0.1-0.4,0.2-0.6,0.2c-0.5,0-0.9-0.3-1.1-0.7c-0.3-0.6-0.1-1.4,0.5-1.8c1.2-0.6,2-1.8,2.5-2.8&#10;&#9;&#9;&#9;&#9;&#9;&#9;&#9;c-2.6-0.2-4.4-0.6-5.8-1c-32.2,30.5-12.6,46.9-7,50.6c0.8,0.5,1.7,0.8,2.7,0.8H652h13.3c0.5,0,1-0.1,1.5-0.3&#10;&#9;&#9;&#9;&#9;&#9;&#9;&#9;C668.4,765.7,677,755.1,674.2,742.6z" style="fill: rgb(255, 255, 255);"/>
						<path id="XMLID_127_" class="st0" d="M661.1,716.3c-1.1,0.4-2.6,0.7-4.6,0.9c0,0,0,0,0,0s14.7,11.6,17.7,25.4&#10;&#9;&#9;&#9;&#9;&#9;&#9;&#9;c2.8,12.5-5.8,23.1-7.3,24.9c0.4-0.1,0.8-0.3,1.2-0.6C673.7,763.2,693.3,746.7,661.1,716.3z" style="fill: rgb(229, 229, 229);"/>
					</g>
					<g id="XMLID_120_">
						<path id="XMLID_123_" class="st2" d="M656.5,717.2c2-0.2,3.5-0.6,4.6-0.9c-0.2-0.2-0.4-0.4-0.7-0.6c0,0-0.6-0.9-0.5-2.4&#10;&#9;&#9;&#9;&#9;&#9;&#9;&#9;c-0.8,0.3-2,0.5-3.6,0.7l0,0C656.4,713.9,656,715.5,656.5,717.2z" style="fill: rgb(67, 135, 50);"/>
						<path id="XMLID_122_" class="st4" d="M644.1,713.2c0.1,1.5-0.5,2.4-0.5,2.4c-0.2,0.2-0.4,0.4-0.7,0.6c0.6,0.2,1.4,0.4,2.3,0.6&#10;&#9;&#9;&#9;&#9;&#9;&#9;&#9;c0.5-1.1,0.8-2.3,0.9-3.1C645.3,713.6,644.6,713.4,644.1,713.2z" style="fill: rgb(125, 198, 107);"/>
						<path id="XMLID_121_" class="st1" d="M653.8,717.4c1,0,1.8-0.1,2.7-0.2c-0.5-1.7-0.1-3.2-0.1-3.2l0,0&#10;&#9;&#9;&#9;&#9;&#9;&#9;&#9;c-1.2,0.1-2.6,0.2-4.3,0.2c-2.5,0-4.4-0.2-5.8-0.4c-0.1,0.9-0.4,2-0.9,3.1c1,0.2,2.1,0.3,3.4,0.4c-0.5,1-1.3,2.2-2.5,2.8&#10;&#9;&#9;&#9;&#9;&#9;&#9;&#9;c-0.6,0.3-0.9,1.1-0.5,1.8c0.2,0.4,0.7,0.7,1.1,0.7c0.2,0,0.4,0,0.6-0.2c2-1,3.2-3.1,3.9-4.5c0.2,2.2,0.9,5.6,3.4,7.8&#10;&#9;&#9;&#9;&#9;&#9;&#9;&#9;c0.2,0.2,0.6,0.3,0.9,0.3c0.4,0,0.7-0.1,1-0.4c0.5-0.5,0.4-1.4-0.1-1.8C654.4,722,653.9,719.1,653.8,717.4z" style="fill: rgb(86, 165, 70);"/>
					</g>
				</g><path d="M 666.7 744.900024 A 14.7 14.7 0 0 1 652 759.600024 A 14.7 14.7 0 0 1 637.3 744.900024 A 14.7 14.7 0 0 1 652 730.200025 A 14.7 14.7 0 0 1 666.7 744.900024 Z" id="XMLID_118_" class="st1" style="fill: rgb(86, 165, 70);" transform="matrix(1, 0, 0, 1, -554.21959400177, -548.323673248291)"/><path id="XMLID_116_" class="st3" d="M650.5,752.4c-1.9-0.3-3.4-0.9-4.5-1.9c-0.2-0.2-0.2-0.5-0.1-0.7l1.4-2&#10;&#9;&#9;&#9;&#9;&#9;&#9;&#9;c0.2-0.2,0.5-0.3,0.7-0.1c1,0.9,2.5,1.6,4.3,1.6c1.3,0,2.1-0.5,2.1-1.2c0-2-8.3-0.4-8.3-6.1c0-2.1,1.5-4,4.4-4.5&#10;&#9;&#9;&#9;&#9;&#9;&#9;&#9;c0.2,0,0.4-0.2,0.4-0.5v-1.1c0-0.3,0.2-0.5,0.5-0.5h1.4c0.3,0,0.5,0.2,0.5,0.5v1.2c0,0.2,0.2,0.4,0.4,0.5&#10;&#9;&#9;&#9;&#9;&#9;&#9;&#9;c1.4,0.3,2.7,0.8,3.7,1.6c0.2,0.2,0.3,0.5,0.1,0.7l-1.5,1.9c-0.2,0.2-0.5,0.3-0.7,0.1c-1.2-0.8-2.6-1.2-3.9-1.2&#10;&#9;&#9;&#9;&#9;&#9;&#9;&#9;c-1.1,0-1.6,0.4-1.6,1.1c0,1.9,8.3,0.5,8.3,6c0,2.5-1.6,4.3-4.5,4.8c-0.2,0-0.4,0.2-0.4,0.5v1.1c0,0.3-0.2,0.5-0.5,0.5h-1.4&#10;&#9;&#9;&#9;&#9;&#9;&#9;&#9;c-0.3,0-0.5-0.2-0.5-0.5v-1.1C651,752.6,650.8,752.4,650.5,752.4z" style="fill: rgb(255, 255, 255);" transform="matrix(1, 0, 0, 1, -554.21959400177, -548.323673248291)"/><path d="M 689.200012 658.599976 H 718.100012 V 662.899976 H 689.200012 V 658.599976 Z" id="XMLID_39_" class="st0" style="fill: rgb(229, 229, 229);" transform="matrix(1, 0, 0, 1, -554.21959400177, -548.323673248291)"/><path d="M 734.400024 685 H 760.200024 V 689.3 H 734.400024 V 685 Z" id="XMLID_45_" class="st0" style="fill: rgb(229, 229, 229);" transform="matrix(1, 0, 0, 1, -554.21959400177, -548.323673248291)"/>
</svg>