<?xml version="1.0" encoding="utf-8"?>
<svg id="master-artboard" viewBox="0 0 132.60269165039062 131.2879180908203" version="1.1" xmlns="http://www.w3.org/2000/svg" x="0px" y="0px" style="enable-background:new 0 0 550 385;" width="132.60269165039062px" height="131.2879180908203px"><rect id="ee-background" x="0" y="0" width="132.60269165039062" height="131.2879180908203" style="fill: white; fill-opacity: 0; pointer-events: none;"/>


<g id="label_23_" transform="matrix(1, 0, 0, 1, -372.83855628967285, -200.0597059726715)">
				<path d="M 495.5 266 A 57 57 0 0 1 438.5 323 A 57 57 0 0 1 381.5 266 A 57 57 0 0 1 438.5 209 A 57 57 0 0 1 495.5 266 Z" class="st1" style="fill: rgb(86, 165, 70);"/>
			</g><g id="icon_23_" transform="matrix(1, 0, 0, 1, -372.83855628967285, -200.0597059726715)">
				<path d="M 408.899994 255.800003 H 418.899994 V 295.400002 H 408.899994 V 255.800003 Z" class="st2" style="fill: rgb(51, 51, 51);"/>
				<path d="M 425 242.600006 H 435 V 295.400005 H 425 V 242.600006 Z" class="st2" style="fill: rgb(51, 51, 51);"/>
				<path d="M 441 250.5 H 451 V 295.400002 H 441 V 250.5 Z" class="st2" style="fill: rgb(51, 51, 51);"/>
				<path d="M 457.100006 261.200012 H 467.100006 V 295.400013 H 457.100006 V 261.200012 Z" class="st2" style="fill: rgb(51, 51, 51);"/>
				<path class="st3" d="M459,243.7c0.3,0.6,0.8,1,1.4,1.3c0.8,0.4,1.6,0.7,2.3,0.9l0.2,5.6c-0.7,0-1.3-0.4-1.9-1&#10;&#9;&#9;&#9;&#9;&#9;c-0.4-0.4-0.6-1.1-0.8-2.1l-1.8,0.4c0.1,0.9,0.4,1.7,0.8,2.3c0.4,0.6,0.9,1.1,1.5,1.4c0.6,0.3,1.3,0.4,2.2,0.5l0.1,1.8l1.1,0&#10;&#9;&#9;&#9;&#9;&#9;l-0.1-1.8c1.3-0.1,2.3-0.6,3-1.4c0.8-0.9,1.1-1.9,1.1-3.2c0-0.6-0.1-1.1-0.3-1.6c-0.2-0.5-0.5-0.9-0.9-1.2&#10;&#9;&#9;&#9;&#9;&#9;c-0.4-0.3-0.8-0.6-1.4-0.8c-0.3-0.1-0.9-0.3-1.8-0.5l-0.2-5.2c0.6,0.1,1.1,0.3,1.4,0.7c0.4,0.4,0.6,0.9,0.7,1.6l1.8-0.4&#10;&#9;&#9;&#9;&#9;&#9;c-0.2-1.1-0.7-2-1.5-2.6c-0.6-0.5-1.5-0.8-2.5-0.8l0-0.9l-1.1,0l0,0.9c-1.2,0.2-2.1,0.5-2.7,1.1c-0.9,0.8-1.3,1.9-1.2,3.2&#10;&#9;&#9;&#9;&#9;&#9;C458.5,242.5,458.7,243.1,459,243.7z M465.7,246.9c0.3,0.4,0.5,0.9,0.5,1.6c0,0.8-0.2,1.4-0.6,2c-0.4,0.5-1,0.9-1.7,1l-0.2-5.4&#10;&#9;&#9;&#9;&#9;&#9;C464.7,246.2,465.4,246.5,465.7,246.9z M460.9,239.9c0.4-0.5,0.9-0.8,1.6-0.9l0.2,4.9c-0.8-0.2-1.4-0.5-1.8-0.9&#10;&#9;&#9;&#9;&#9;&#9;c-0.4-0.4-0.5-0.9-0.6-1.5C460.3,240.9,460.5,240.4,460.9,239.9z" style="fill: rgb(51, 51, 51);"/>
			</g>
</svg>