<?xml version="1.0" encoding="utf-8"?>
<svg id="master-artboard" viewBox="0 0 773.5548095703125 306.3872985839844" version="1.1" xmlns="http://www.w3.org/2000/svg" x="0px" y="0px" style="enable-background:new 0 0 1400 980;" width="773.5548095703125px" height="306.3872985839844px"><defs><style id="ee-google-fonts">@import url(https://fonts.googleapis.com/css?family=Alex+Brush:400);</style></defs><rect id="ee-background" x="0" y="0" width="773.5548095703125" height="306.3872985839844" style="fill: white; fill-opacity: 0; pointer-events: none;"/>
<path d="M648,427.7c7.1,0,12.9-5.8,12.9-12.9v0c0-7.1-5.8-12.9-12.9-12.9h-16.4h-1.8c-11.5-79.8,25.5-141.5,25.5-141.5&#10;&#9;&#9;c-32-38.7-49.5-112.6-55.4-141.9c2.1-1.9,3.5-4.6,3.5-7.7c0-5.6-4.6-10.2-10.2-10.2v5.4v14.9V240c10.5,1,18.7,9.8,18.7,20.5&#10;&#9;&#9;c0,11.4-9.2,76.9-20.6,76.9c-11.4,0-20.6-65.5-20.6-76.9c0-10.7,8.2-19.6,18.7-20.5V121.1v-14.9v-5.4c-5.6,0-10.2,4.6-10.2,10.2&#10;&#9;&#9;c0,3.1,1.4,5.8,3.5,7.7c-5.9,29.3-23.3,103.2-55.4,141.9c0,0,37,61.7,25.5,141.5h-1.8h-16.4c-7.1,0-12.9,5.8-12.9,12.9v0&#10;&#9;&#9;c0,7.1,5.8,12.9,12.9,12.9h4.5l0,16.8h-4.5c-7.1,0-12.9,5.8-12.9,12.9s5.8,12.9,12.9,12.9h4.5l-0.3,366.5c0,23.5,19,42.5,42.5,42.5&#10;&#9;&#9;h19.7c23.5,0,42.5-19,42.5-42.5l-0.3-366.5h4.5c7.1,0,12.9-5.8,12.9-12.9s-5.8-12.9-12.9-12.9h-4.5l0-16.8H648z" transform="matrix(0.28400298953056335, 0.9588279128074646, -0.9588279128074646, 0.28400298953056335, 683.9355316162109, -572.7832336425781)" style="fill: rgb(86, 165, 70); stroke: rgb(255, 255, 255);"/>
<path d="M 243.03993225097656 501.3900146484375 C 243.03993225097656 499.663330078125 243.5532684326172 497.9533386230469 244.57994079589844 496.260009765625 C 243.3932647705078 495.50665283203125 242.7999267578125 494.3933410644531 242.7999267578125 492.9200134277344 C 242.7999267578125 491.14666748046875 243.58326721191406 489.57000732421875 245.14993286132812 488.19000244140625 C 246.90992736816406 486.63665771484375 249.1832733154297 485.8599853515625 251.96994018554688 485.8599853515625 C 253.24993896484375 485.8599853515625 254.62660217285156 486.0466613769531 256.0999450683594 486.4200134277344 C 256.4332580566406 486.5 257.86328125 487.1199951171875 260.3899230957031 488.2799987792969 C 262.92327880859375 489.44000244140625 264.73992919921875 490.0199890136719 265.8399353027344 490.0199890136719 C 266.5799255371094 490.0199890136719 267.1332702636719 489.80999755859375 267.49993896484375 489.3900146484375 C 267.6932678222656 489.1833190917969 267.7899475097656 488.9599914550781 267.7899475097656 488.7200012207031 C 267.7899475097656 488.4800109863281 267.6832580566406 488.2633361816406 267.4699401855469 488.07000732421875 C 267.36328125 487.9100036621094 267.3099365234375 487.8066711425781 267.3099365234375 487.760009765625 C 267.3099365234375 487.71331787109375 267.353271484375 487.69000244140625 267.43994140625 487.69000244140625 C 267.526611328125 487.69000244140625 267.6766052246094 487.8299865722656 267.8899230957031 488.1099853515625 C 268.10992431640625 488.3900146484375 268.2199401855469 488.7166748046875 268.2199401855469 489.0899963378906 C 268.2199401855469 489.4700012207031 267.96661376953125 489.8299865722656 267.4599304199219 490.1700134277344 C 266.9599304199219 490.51666259765625 266.3232727050781 490.69000244140625 265.5499267578125 490.69000244140625 C 264.3499450683594 490.69000244140625 262.4866027832031 490.1099853515625 259.9599304199219 488.95001220703125 C 257.4332580566406 487.7900085449219 255.8466033935547 487.14666748046875 255.19993591308594 487.0199890136719 C 254.5532684326172 486.88665771484375 253.81326293945312 486.82000732421875 252.9799346923828 486.82000732421875 C 249.66659545898438 486.82000732421875 247.0565948486328 487.8933410644531 245.14993286132812 490.0400085449219 C 244.929931640625 490.2799987792969 244.66659545898438 490.7633361816406 244.3599395751953 491.489990234375 C 244.0599365234375 492.2166748046875 243.90992736816406 492.9166564941406 243.90992736816406 493.5899963378906 C 243.90992736816406 494.51666259765625 244.23660278320312 495.2366638183594 244.8899383544922 495.75 C 245.7232666015625 494.53668212890625 246.70660400390625 493.57000732421875 247.83993530273438 492.8500061035156 C 248.9799346923828 492.1300048828125 250.13327026367188 491.7699890136719 251.2999267578125 491.7699890136719 C 252.73992919921875 491.7699890136719 253.45993041992188 492.3299865722656 253.45993041992188 493.45001220703125 C 253.45993041992188 494.7900085449219 252.66993713378906 496.25 251.08993530273438 497.8299865722656 C 249.5166015625 499.4033203125 248.0565948486328 500.19000244140625 246.70993041992188 500.19000244140625 C 245.8499298095703 500.19000244140625 245.41993713378906 499.8233337402344 245.41993713378906 499.0899963378906 C 245.41993713378906 498.8299865722656 245.48660278320312 498.6066589355469 245.61993408203125 498.4200134277344 C 245.7599334716797 498.2266540527344 245.9232635498047 498.1533203125 246.1099395751953 498.20001220703125 L 246.06993103027344 498.75 C 246.06993103027344 498.989990234375 246.4365997314453 499.1099853515625 247.16993713378906 499.1099853515625 C 248.25660705566406 499.1099853515625 249.4032745361328 498.54998779296875 250.6099395751953 497.42999267578125 C 251.82327270507812 496.30999755859375 252.5565948486328 495.21331787109375 252.8099365234375 494.1400146484375 C 252.87660217285156 493.8999938964844 252.90992736816406 493.6866760253906 252.90992736816406 493.5 C 252.90992736816406 492.7799987792969 252.44993591308594 492.4200134277344 251.52993774414062 492.4200134277344 C 250.6099395751953 492.4200134277344 249.65660095214844 492.7699890136719 248.66993713378906 493.4700012207031 C 247.6832733154297 494.1766662597656 246.7599334716797 495.1066589355469 245.89993286132812 496.260009765625 C 245.95993041992188 496.28668212890625 246.20660400390625 496.3500061035156 246.6399383544922 496.45001220703125 L 248.07994079589844 496.5 C 248.78660583496094 496.52667236328125 249.1399383544922 496.6066589355469 249.1399383544922 496.739990234375 C 249.1399383544922 496.9599914550781 248.8032684326172 497.07000732421875 248.1299285888672 497.07000732421875 C 248.08326721191406 497.07000732421875 248.03660583496094 497.07000732421875 247.98992919921875 497.07000732421875 C 247.0099334716797 497.07000732421875 246.20993041992188 496.95001220703125 245.58993530273438 496.7099914550781 C 244.35659790039062 498.5966796875 243.73992919921875 500.3333435058594 243.73992919921875 501.9200134277344 C 243.73992919921875 503.9666748046875 244.52993774414062 504.989990234375 246.1099395751953 504.989990234375 C 247.9032745361328 504.989990234375 249.76992797851562 503.74334716796875 251.70993041992188 501.25 L 256.4099426269531 494.239990234375 C 258.169921875 491.67999267578125 259.69659423828125 490.3666687011719 260.98992919921875 490.29998779296875 L 261.9099426269531 490.5199890136719 C 262.19659423828125 490.67999267578125 262.3399353027344 490.9200134277344 262.3399353027344 491.239990234375 C 262.3399353027344 491.55999755859375 262.25994873046875 491.7200012207031 262.0999450683594 491.7200012207031 L 261.3299255371094 491.6000061035156 C 260.2232666015625 491.6000061035156 258.8066101074219 492.7933349609375 257.0799255371094 495.17999267578125 L 252.3099365234375 501.8500061035156 C 250.25660705566406 504.2300109863281 248.29660034179688 505.4200134277344 246.429931640625 505.4200134277344 C 245.14993286132812 505.4200134277344 244.2632598876953 505.07666015625 243.76992797851562 504.3900146484375 C 243.28326416015625 503.7033386230469 243.03993225097656 502.7033386230469 243.03993225097656 501.3900146484375 ZM 263.1335754394531 503.1199951171875 C 261.93359375 503.1199951171875 261.3335876464844 502.4566650390625 261.3335876464844 501.1300048828125 C 261.3335876464844 500.4566650390625 261.5069274902344 499.7200012207031 261.85357666015625 498.9200134277344 C 262.2069091796875 498.1199951171875 262.59356689453125 497.4466552734375 263.0135803222656 496.8999938964844 C 262.93359375 496.9200134277344 262.826904296875 496.92999267578125 262.6935729980469 496.92999267578125 C 262.3135681152344 496.92999267578125 261.99359130859375 496.65667724609375 261.73358154296875 496.1099853515625 L 259.9635925292969 498.4200134277344 C 258.9702453613281 499.64666748046875 258.3935852050781 500.260009765625 258.23358154296875 500.260009765625 C 258.1535949707031 500.260009765625 258.11358642578125 500.2300109863281 258.11358642578125 500.1700134277344 C 258.11358642578125 500.010009765625 258.250244140625 499.77667236328125 258.5235900878906 499.4700012207031 C 259.9169006347656 497.8566589355469 260.9002380371094 496.489990234375 261.47357177734375 495.3699951171875 C 261.8402404785156 493.9766540527344 262.3035888671875 493.2799987792969 262.86358642578125 493.2799987792969 C 263.2302551269531 493.2799987792969 263.41357421875 493.44000244140625 263.41357421875 493.760009765625 C 263.41357421875 494.0799865722656 263.2135925292969 494.4866638183594 262.8135681152344 494.9800109863281 L 262.24359130859375 495.75 C 262.24359130859375 496.0899963378906 262.490234375 496.260009765625 262.98358154296875 496.260009765625 C 263.270263671875 496.260009765625 263.5902404785156 496.1533203125 263.9435729980469 495.94000244140625 L 264.5735778808594 495.55999755859375 C 264.6002502441406 495.5466613769531 264.68023681640625 495.5400085449219 264.8135681152344 495.5400085449219 C 264.94024658203125 495.5400085449219 265.0735778808594 495.6199951171875 265.2135925292969 495.7799987792969 C 265.3602600097656 495.94000244140625 265.4102478027344 496.0833435058594 265.36358642578125 496.2099914550781 L 263.7035827636719 498.29998779296875 C 262.68359375 499.6066589355469 262.173583984375 500.6400146484375 262.173583984375 501.3999938964844 C 262.173583984375 502.1600036621094 262.5235900878906 502.5400085449219 263.22357177734375 502.5400085449219 C 263.9635925292969 502.5400085449219 264.8669128417969 502.1499938964844 265.93359375 501.3699951171875 C 266.5735778808594 500.9033203125 267.1602478027344 500.3833312988281 267.6935729980469 499.80999755859375 C 268.1869201660156 499.2300109863281 268.4569091796875 498.94000244140625 268.5035705566406 498.94000244140625 C 268.6169128417969 498.94000244140625 268.673583984375 499 268.673583984375 499.1199951171875 C 268.673583984375 499.239990234375 268.6002502441406 499.3800048828125 268.4535827636719 499.5400085449219 L 267.6935729980469 500.4100036621094 C 267.26025390625 500.8566589355469 266.7802429199219 501.2866516113281 266.2535705566406 501.70001220703125 C 264.9869079589844 502.64666748046875 263.9468994140625 503.1199951171875 263.1335754394531 503.1199951171875 ZM 268.90936279296875 503.30999755859375 C 268.73602294921875 503.30999755859375 268.5760192871094 503.2866516113281 268.4293518066406 503.239990234375 C 267.40936279296875 502.9533386230469 266.89935302734375 502.3766784667969 266.89935302734375 501.510009765625 C 266.89935302734375 500.3900146484375 267.6026916503906 499.09332275390625 269.0093688964844 497.6199951171875 C 270.416015625 496.1533203125 271.6793518066406 495.4200134277344 272.7993469238281 495.4200134277344 C 273.166015625 495.4200134277344 273.4660339355469 495.5199890136719 273.6993713378906 495.7200012207031 C 273.9327087402344 495.9200134277344 274.0493469238281 496.163330078125 274.0493469238281 496.45001220703125 C 274.0493469238281 497.34332275390625 273.3726806640625 498.20001220703125 272.01934814453125 499.0199890136719 C 270.666015625 499.8333435058594 269.5660400390625 500.239990234375 268.7193603515625 500.239990234375 C 268.5926818847656 500.239990234375 268.4826965332031 500.22332763671875 268.3893737792969 500.19000244140625 C 268.14935302734375 500.6233215332031 268.02935791015625 501.0799865722656 268.02935791015625 501.55999755859375 C 268.02935791015625 502.3933410644531 268.4226989746094 502.80999755859375 269.2093505859375 502.80999755859375 C 270.002685546875 502.80999755859375 271.0326843261719 502.2733459472656 272.2993469238281 501.20001220703125 C 273.272705078125 500.413330078125 274.1026916503906 499.5799865722656 274.78936767578125 498.70001220703125 C 274.93603515625 498.5133361816406 275.06268310546875 498.4200134277344 275.16937255859375 498.4200134277344 C 275.26934814453125 498.4200134277344 275.3193664550781 498.4666748046875 275.3193664550781 498.55999755859375 C 275.3193664550781 498.6533203125 275.25604248046875 498.7900085449219 275.1293640136719 498.9700012207031 C 274.2626953125 500.10333251953125 273.2226867675781 501.1099853515625 272.0093688964844 501.989990234375 C 270.7960205078125 502.8699951171875 269.7626953125 503.30999755859375 268.90936279296875 503.30999755859375 M 273.4493713378906 496.3999938964844 C 273.4493713378906 496.2066650390625 273.24603271484375 496.1099853515625 272.83935546875 496.1099853515625 C 272.4327087402344 496.1099853515625 271.8526916503906 496.42333984375 271.099365234375 497.04998779296875 C 270.0926818847656 497.8833312988281 269.3093566894531 498.7533264160156 268.7493591308594 499.6600036621094 C 268.8426818847656 499.6933288574219 268.9460144042969 499.7099914550781 269.0593566894531 499.7099914550781 C 269.666015625 499.7099914550781 270.47601318359375 499.38665771484375 271.4893493652344 498.739990234375 C 272.5093688964844 498.09332275390625 273.1460266113281 497.38665771484375 273.39935302734375 496.6199951171875 C 273.4327087402344 496.5400085449219 273.4493713378906 496.4666748046875 273.4493713378906 496.3999938964844 ZM 280.35723876953125 493.57000732421875 C 280.8372497558594 493.57000732421875 281.24725341796875 493.7300109863281 281.5872497558594 494.04998779296875 C 281.9205627441406 494.3699951171875 282.0872497558594 494.8166809082031 282.0872497558594 495.3900146484375 C 282.0872497558594 496.65667724609375 281.0405578613281 498.239990234375 278.9472351074219 500.1400146484375 C 277.167236328125 501.739990234375 275.7339172363281 502.7166748046875 274.6472473144531 503.07000732421875 C 274.4739074707031 503.07000732421875 274.243896484375 502.97332763671875 273.9572448730469 502.7799987792969 C 273.6639099121094 502.59332275390625 273.5172424316406 502.4200134277344 273.5172424316406 502.260009765625 C 273.5172424316406 501.90667724609375 273.9039001464844 500.7133483886719 274.67724609375 498.67999267578125 C 275.44390869140625 496.64666748046875 275.9705810546875 495.510009765625 276.2572326660156 495.2699890136719 C 276.32391357421875 495.2099914550781 276.42724609375 495.17999267578125 276.5672302246094 495.17999267578125 C 276.7138977050781 495.17999267578125 276.86724853515625 495.2533264160156 277.0272521972656 495.3999938964844 C 277.1872253417969 495.5533447265625 277.2738952636719 495.73333740234375 277.2872314453125 495.94000244140625 C 277.2872314453125 495.9599914550781 276.89056396484375 496.8900146484375 276.09722900390625 498.7300109863281 C 275.3105773925781 500.57000732421875 274.9405822753906 501.6666564941406 274.98724365234375 502.0199890136719 C 275.6739196777344 501.8066711425781 276.90057373046875 500.9666748046875 278.667236328125 499.5 C 280.43389892578125 498.02667236328125 281.3172302246094 496.7066650390625 281.3172302246094 495.5400085449219 C 281.3172302246094 494.8333435058594 280.96722412109375 494.32000732421875 280.2672424316406 494 C 280.1539001464844 493.9533386230469 280.09722900390625 493.8800048828125 280.09722900390625 493.7799987792969 C 280.09722900390625 493.6400146484375 280.18389892578125 493.57000732421875 280.35723876953125 493.57000732421875 ZM 287.341064453125 497.9100036621094 C 287.341064453125 498.4700012207031 286.8077087402344 499.40667724609375 285.7410583496094 500.7200012207031 C 284.4743957519531 502.2733459472656 283.3943786621094 503.04998779296875 282.5010681152344 503.04998779296875 L 282.1110534667969 503.04998779296875 C 281.6977233886719 503.04998779296875 281.3710632324219 502.8333435058594 281.13104248046875 502.3999938964844 C 280.9377136230469 502.09332275390625 280.841064453125 501.75665283203125 280.841064453125 501.3900146484375 C 280.841064453125 500.42999267578125 281.5410461425781 499.0833435058594 282.9410400390625 497.3500061035156 C 284.341064453125 495.6099853515625 285.4743957519531 494.739990234375 286.341064453125 494.739990234375 C 287.1543884277344 494.739990234375 287.5610656738281 495.17333984375 287.5610656738281 496.0400085449219 C 287.5610656738281 496.26666259765625 287.52105712890625 496.5533447265625 287.4410400390625 496.8999938964844 C 287.4543762207031 496.9533386230469 287.60772705078125 496.9800109863281 287.90106201171875 496.9800109863281 C 288.1877136230469 496.9800109863281 288.6277160644531 496.82666015625 289.2210693359375 496.5199890136719 C 289.2010498046875 496.7933349609375 288.5677185058594 497.1866760253906 287.321044921875 497.70001220703125 C 287.3343811035156 497.760009765625 287.341064453125 497.8299865722656 287.341064453125 497.9100036621094 M 285.78106689453125 496.6600036621094 C 285.2410583496094 496.6600036621094 284.4710693359375 497.29998779296875 283.4710693359375 498.5799865722656 C 282.4710693359375 499.8599853515625 281.9710693359375 500.8066711425781 281.9710693359375 501.4200134277344 C 281.9710693359375 502.02667236328125 282.1610412597656 502.3299865722656 282.5410461425781 502.3299865722656 C 283.234375 502.3299865722656 284.10772705078125 501.7066650390625 285.1610412597656 500.4599914550781 C 286.2143859863281 499.2066650390625 286.7410583496094 498.30999755859375 286.7410583496094 497.7699890136719 C 286.48773193359375 497.6233215332031 286.167724609375 497.2533264160156 285.78106689453125 496.6600036621094 ZM 292.72491455078125 503.1199951171875 C 291.5249328613281 503.1199951171875 290.9249267578125 502.4566650390625 290.9249267578125 501.1300048828125 C 290.9249267578125 500.4566650390625 291.0982666015625 499.7200012207031 291.4449157714844 498.9200134277344 C 291.7982482910156 498.1199951171875 292.1849060058594 497.4466552734375 292.60491943359375 496.8999938964844 C 292.5249328613281 496.9200134277344 292.4182434082031 496.92999267578125 292.284912109375 496.92999267578125 C 291.9049072265625 496.92999267578125 291.5849304199219 496.65667724609375 291.3249206542969 496.1099853515625 L 289.554931640625 498.4200134277344 C 288.56158447265625 499.64666748046875 287.98492431640625 500.260009765625 287.8249206542969 500.260009765625 C 287.74493408203125 500.260009765625 287.7049255371094 500.2300109863281 287.7049255371094 500.1700134277344 C 287.7049255371094 500.010009765625 287.8415832519531 499.77667236328125 288.11492919921875 499.4700012207031 C 289.50823974609375 497.8566589355469 290.4915771484375 496.489990234375 291.0649108886719 495.3699951171875 C 291.43157958984375 493.9766540527344 291.8949279785156 493.2799987792969 292.4549255371094 493.2799987792969 C 292.82159423828125 493.2799987792969 293.0049133300781 493.44000244140625 293.0049133300781 493.760009765625 C 293.0049133300781 494.0799865722656 292.804931640625 494.4866638183594 292.4049072265625 494.9800109863281 L 291.8349304199219 495.75 C 291.8349304199219 496.0899963378906 292.0815734863281 496.260009765625 292.5749206542969 496.260009765625 C 292.861572265625 496.260009765625 293.18157958984375 496.1533203125 293.534912109375 495.94000244140625 L 294.1649169921875 495.55999755859375 C 294.19158935546875 495.5466613769531 294.2715759277344 495.5400085449219 294.4049072265625 495.5400085449219 C 294.5315856933594 495.5400085449219 294.6649169921875 495.6199951171875 294.804931640625 495.7799987792969 C 294.95159912109375 495.94000244140625 295.0015869140625 496.0833435058594 294.9549255371094 496.2099914550781 L 293.294921875 498.29998779296875 C 292.2749328613281 499.6066589355469 291.7649230957031 500.6400146484375 291.7649230957031 501.3999938964844 C 291.7649230957031 502.1600036621094 292.11492919921875 502.5400085449219 292.8149108886719 502.5400085449219 C 293.554931640625 502.5400085449219 294.458251953125 502.1499938964844 295.5249328613281 501.3699951171875 C 296.1649169921875 500.9033203125 296.7515869140625 500.3833312988281 297.284912109375 499.80999755859375 C 297.77825927734375 499.2300109863281 298.0482482910156 498.94000244140625 298.09490966796875 498.94000244140625 C 298.208251953125 498.94000244140625 298.2649230957031 499 298.2649230957031 499.1199951171875 C 298.2649230957031 499.239990234375 298.19158935546875 499.3800048828125 298.044921875 499.5400085449219 L 297.284912109375 500.4100036621094 C 296.8515930175781 500.8566589355469 296.37158203125 501.2866516113281 295.84490966796875 501.70001220703125 C 294.5782470703125 502.64666748046875 293.53826904296875 503.1199951171875 292.72491455078125 503.1199951171875 ZM 314.7026062011719 496.9800109863281 C 316.25592041015625 497.02667236328125 317.075927734375 497.04998779296875 317.16259765625 497.04998779296875 C 317.249267578125 497.04998779296875 317.3025817871094 497.04998779296875 317.3226013183594 497.04998779296875 C 317.7026062011719 497.01666259765625 317.892578125 497.0733337402344 317.892578125 497.2200012207031 C 317.892578125 497.44000244140625 317.58258056640625 497.54998779296875 316.96258544921875 497.54998779296875 L 314.922607421875 497.5 C 314.5025939941406 497.5333251953125 314.2525939941406 497.5733337402344 314.172607421875 497.6199951171875 C 313.50592041015625 498.4533386230469 312.60260009765625 499.6600036621094 311.46258544921875 501.239990234375 C 310.3292541503906 502.8133239746094 309.7626037597656 503.7533264160156 309.7626037597656 504.05999755859375 C 309.7626037597656 504.1866760253906 309.9059143066406 504.1533203125 310.1925964355469 503.9599914550781 C 310.3659362792969 503.9599914550781 310.4526062011719 503.98333740234375 310.4526062011719 504.0299987792969 C 310.4526062011719 504.1099853515625 310.2792663574219 504.2300109863281 309.9325866699219 504.3900146484375 L 309.2525939941406 504.75 C 308.9526062011719 505.010009765625 308.6059265136719 505.1400146484375 308.21258544921875 505.1400146484375 C 307.81927490234375 505.1400146484375 307.6392517089844 505.0433349609375 307.672607421875 504.8500061035156 C 307.6859130859375 504.4633483886719 308.2525939941406 503.489990234375 309.3725891113281 501.92999267578125 C 310.4925842285156 500.3699951171875 311.652587890625 498.88665771484375 312.85260009765625 497.4800109863281 C 311.7059326171875 497.6866760253906 310.825927734375 497.7900085449219 310.21258544921875 497.7900085449219 C 310.152587890625 497.77667236328125 310.1225891113281 497.7266540527344 310.1225891113281 497.6400146484375 C 310.1225891113281 497.5466613769531 310.2192687988281 497.4200134277344 310.41259765625 497.260009765625 C 310.5992736816406 497.1000061035156 310.8025817871094 497.0199890136719 311.0225830078125 497.0199890136719 C 311.2359313964844 497.0199890136719 311.58258056640625 497.0133361816406 312.0625915527344 497 L 313.2926025390625 497 C 313.83258056640625 496.26666259765625 315.03924560546875 494.57000732421875 316.91259765625 491.9100036621094 C 317.67926025390625 490.80999755859375 318.0625915527344 489.8999938964844 318.0625915527344 489.17999267578125 C 318.0625915527344 488.05999755859375 317.23260498046875 487.5 315.5726013183594 487.5 C 314.2725830078125 487.5 312.74591064453125 487.8599853515625 310.9925842285156 488.5799865722656 C 309.24591064453125 489.29998779296875 307.63592529296875 490.2833251953125 306.16259765625 491.5299987792969 C 305.1225891113281 492.3900146484375 304.29925537109375 493.32666015625 303.6925964355469 494.3399963378906 C 303.0792541503906 495.3466796875 302.7725830078125 496.239990234375 302.7725830078125 497.0199890136719 C 302.7725830078125 498.28668212890625 303.52593994140625 498.9200134277344 305.0325927734375 498.9200134277344 C 305.1592712402344 498.9200134277344 305.2959289550781 498.913330078125 305.4425964355469 498.8999938964844 C 306.4159240722656 498.82000732421875 307.3392639160156 498.2633361816406 308.21258544921875 497.2300109863281 C 309.0859375 496.1966552734375 309.5225830078125 495.32666015625 309.5225830078125 494.6199951171875 C 309.5225830078125 494.55999755859375 309.5126037597656 494.489990234375 309.4925842285156 494.4100036621094 C 309.91259765625 494.489990234375 310.1225891113281 494.7366638183594 310.1225891113281 495.1499938964844 C 310.1225891113281 495.836669921875 309.672607421875 496.64666748046875 308.7725830078125 497.5799865722656 C 307.55926513671875 498.8399963378906 306.152587890625 499.4700012207031 304.5525817871094 499.4700012207031 C 303.672607421875 499.4700012207031 302.9859313964844 499.239990234375 302.4925842285156 498.7799987792969 C 301.9925842285156 498.3133239746094 301.7425842285156 497.67999267578125 301.7425842285156 496.8800048828125 C 301.7425842285156 494.99334716796875 302.89593505859375 493.0899963378906 305.2026062011719 491.1700134277344 C 306.8625793457031 489.80999755859375 308.6292724609375 488.7799987792969 310.5025939941406 488.0799865722656 C 312.37591552734375 487.38665771484375 314.00592041015625 487.0400085449219 315.392578125 487.0400085449219 C 316.7725830078125 487.0400085449219 317.8025817871094 487.239990234375 318.48260498046875 487.6400146484375 C 319.16259765625 488.0400085449219 319.5025939941406 488.5966796875 319.5025939941406 489.30999755859375 C 319.5025939941406 490.0233459472656 319.1925964355469 490.82666015625 318.5726013183594 491.7200012207031 C 318.1992492675781 492.3133239746094 316.9092712402344 494.0666809082031 314.7026062011719 496.9800109863281 ZM 322.1002502441406 503.1199951171875 C 320.9002685546875 503.1199951171875 320.3002624511719 502.4566650390625 320.3002624511719 501.1300048828125 C 320.3002624511719 500.4566650390625 320.4736022949219 499.7200012207031 320.82025146484375 498.9200134277344 C 321.173583984375 498.1199951171875 321.56024169921875 497.4466552734375 321.9802551269531 496.8999938964844 C 321.9002685546875 496.9200134277344 321.7935791015625 496.92999267578125 321.6602478027344 496.92999267578125 C 321.2802429199219 496.92999267578125 320.96026611328125 496.65667724609375 320.70025634765625 496.1099853515625 L 318.9302673339844 498.4200134277344 C 317.9369201660156 499.64666748046875 317.3602600097656 500.260009765625 317.20025634765625 500.260009765625 C 317.1202697753906 500.260009765625 317.08026123046875 500.2300109863281 317.08026123046875 500.1700134277344 C 317.08026123046875 500.010009765625 317.2169189453125 499.77667236328125 317.4902648925781 499.4700012207031 C 318.8835754394531 497.8566589355469 319.8669128417969 496.489990234375 320.44024658203125 495.3699951171875 C 320.8069152832031 493.9766540527344 321.270263671875 493.2799987792969 321.83026123046875 493.2799987792969 C 322.1969299316406 493.2799987792969 322.3802490234375 493.44000244140625 322.3802490234375 493.760009765625 C 322.3802490234375 494.0799865722656 322.1802673339844 494.4866638183594 321.7802429199219 494.9800109863281 L 321.21026611328125 495.75 C 321.21026611328125 496.0899963378906 321.4569091796875 496.260009765625 321.95025634765625 496.260009765625 C 322.2369384765625 496.260009765625 322.5569152832031 496.1533203125 322.9102478027344 495.94000244140625 L 323.5402526855469 495.55999755859375 C 323.5669250488281 495.5466613769531 323.64691162109375 495.5400085449219 323.7802429199219 495.5400085449219 C 323.90692138671875 495.5400085449219 324.0402526855469 495.6199951171875 324.1802673339844 495.7799987792969 C 324.3269348144531 495.94000244140625 324.3769226074219 496.0833435058594 324.33026123046875 496.2099914550781 L 322.6702575683594 498.29998779296875 C 321.6502685546875 499.6066589355469 321.1402587890625 500.6400146484375 321.1402587890625 501.3999938964844 C 321.1402587890625 502.1600036621094 321.4902648925781 502.5400085449219 322.19024658203125 502.5400085449219 C 322.9302673339844 502.5400085449219 323.8335876464844 502.1499938964844 324.9002685546875 501.3699951171875 C 325.5402526855469 500.9033203125 326.1269226074219 500.3833312988281 326.6602478027344 499.80999755859375 C 327.1535949707031 499.2300109863281 327.423583984375 498.94000244140625 327.4702453613281 498.94000244140625 C 327.5835876464844 498.94000244140625 327.6402587890625 499 327.6402587890625 499.1199951171875 C 327.6402587890625 499.239990234375 327.5669250488281 499.3800048828125 327.4202575683594 499.5400085449219 L 326.6602478027344 500.4100036621094 C 326.2269287109375 500.8566589355469 325.7469177246094 501.2866516113281 325.2202453613281 501.70001220703125 C 323.9535827636719 502.64666748046875 322.91357421875 503.1199951171875 322.1002502441406 503.1199951171875 ZM 327.87603759765625 503.30999755859375 C 327.70269775390625 503.30999755859375 327.5426940917969 503.2866516113281 327.3960266113281 503.239990234375 C 326.37603759765625 502.9533386230469 325.86602783203125 502.3766784667969 325.86602783203125 501.510009765625 C 325.86602783203125 500.3900146484375 326.5693664550781 499.09332275390625 327.9760437011719 497.6199951171875 C 329.3826904296875 496.1533203125 330.6460266113281 495.4200134277344 331.7660217285156 495.4200134277344 C 332.1326904296875 495.4200134277344 332.4327087402344 495.5199890136719 332.6660461425781 495.7200012207031 C 332.8993835449219 495.9200134277344 333.0160217285156 496.163330078125 333.0160217285156 496.45001220703125 C 333.0160217285156 497.34332275390625 332.33935546875 498.20001220703125 330.98602294921875 499.0199890136719 C 329.6326904296875 499.8333435058594 328.53271484375 500.239990234375 327.68603515625 500.239990234375 C 327.5593566894531 500.239990234375 327.4493713378906 500.22332763671875 327.3560485839844 500.19000244140625 C 327.11602783203125 500.6233215332031 326.99603271484375 501.0799865722656 326.99603271484375 501.55999755859375 C 326.99603271484375 502.3933410644531 327.3893737792969 502.80999755859375 328.176025390625 502.80999755859375 C 328.9693603515625 502.80999755859375 329.9993591308594 502.2733459472656 331.2660217285156 501.20001220703125 C 332.2393798828125 500.413330078125 333.0693664550781 499.5799865722656 333.75604248046875 498.70001220703125 C 333.9027099609375 498.5133361816406 334.02935791015625 498.4200134277344 334.13604736328125 498.4200134277344 C 334.23602294921875 498.4200134277344 334.2860412597656 498.4666748046875 334.2860412597656 498.55999755859375 C 334.2860412597656 498.6533203125 334.22271728515625 498.7900085449219 334.0960388183594 498.9700012207031 C 333.2293701171875 500.10333251953125 332.1893615722656 501.1099853515625 330.9760437011719 501.989990234375 C 329.7626953125 502.8699951171875 328.7293701171875 503.30999755859375 327.87603759765625 503.30999755859375 M 332.4160461425781 496.3999938964844 C 332.4160461425781 496.2066650390625 332.21270751953125 496.1099853515625 331.8060302734375 496.1099853515625 C 331.3993835449219 496.1099853515625 330.8193664550781 496.42333984375 330.0660400390625 497.04998779296875 C 329.0593566894531 497.8833312988281 328.2760314941406 498.7533264160156 327.7160339355469 499.6600036621094 C 327.8093566894531 499.6933288574219 327.9126892089844 499.7099914550781 328.0260314941406 499.7099914550781 C 328.6326904296875 499.7099914550781 329.44268798828125 499.38665771484375 330.4560241699219 498.739990234375 C 331.4760437011719 498.09332275390625 332.1127014160156 497.38665771484375 332.36602783203125 496.6199951171875 C 332.3993835449219 496.5400085449219 332.4160461425781 496.4666748046875 332.4160461425781 496.3999938964844 ZM 336.68389892578125 495.4200134277344 C 337.11724853515625 495.4200134277344 337.33392333984375 495.586669921875 337.33392333984375 495.9200134277344 C 337.33392333984375 496.0133361816406 337.3105773925781 496.1099853515625 337.263916015625 496.2099914550781 C 335.82391357421875 498.2099914550781 334.9605712890625 499.7200012207031 334.6739196777344 500.739990234375 C 338.40057373046875 497.0133361816406 340.6639099121094 495.1499938964844 341.46392822265625 495.1499938964844 C 341.5439147949219 495.13665771484375 341.61724853515625 495.1300048828125 341.68389892578125 495.1300048828125 C 342.1305847167969 495.1300048828125 342.3539123535156 495.3299865722656 342.3539123535156 495.7300109863281 C 342.3539123535156 495.80999755859375 342.3372497558594 495.8900146484375 342.3039245605469 495.9700012207031 C 342.27056884765625 496.04998779296875 341.9505920410156 496.4800109863281 341.3439025878906 497.260009765625 C 340.6372375488281 498.09332275390625 340.04058837890625 498.8933410644531 339.5539245605469 499.6600036621094 C 339.0672607421875 500.4333190917969 338.82391357421875 501.0733337402344 338.82391357421875 501.5799865722656 C 338.82391357421875 502.09332275390625 338.937255859375 502.3500061035156 339.1639099121094 502.3500061035156 C 339.8639221191406 502.3500061035156 341.0872497558594 501.3833312988281 342.83392333984375 499.45001220703125 C 342.86724853515625 499.4166564941406 342.9239196777344 499.34332275390625 343.00390625 499.2300109863281 C 343.2439270019531 498.9433288574219 343.3872375488281 498.79998779296875 343.43389892578125 498.79998779296875 C 343.4805908203125 498.79998779296875 343.50390625 498.8800048828125 343.50390625 499.0400085449219 C 343.50390625 499.20001220703125 343.3905944824219 499.40667724609375 343.1639099121094 499.6600036621094 C 341.18389892578125 501.9200134277344 339.7772521972656 503.04998779296875 338.94390869140625 503.04998779296875 C 338.1572570800781 503.04998779296875 337.763916015625 502.6166687011719 337.763916015625 501.75 C 337.763916015625 500.8900146484375 338.08392333984375 499.8999938964844 338.7239074707031 498.7799987792969 L 340.263916015625 496.2799987792969 C 339.17724609375 497.0799865722656 338.2105712890625 497.9566650390625 337.3639221191406 498.9100036621094 C 336.5105895996094 499.86334228515625 335.73724365234375 500.7866516113281 335.0439147949219 501.67999267578125 C 334.3505859375 502.5733337402344 333.9472351074219 503.0199890136719 333.83392333984375 503.0199890136719 C 333.5939025878906 503.0199890136719 333.4039001464844 502.9200134277344 333.263916015625 502.7200012207031 C 333.1305847167969 502.5199890136719 333.06390380859375 502.2733459472656 333.06390380859375 501.9800109863281 C 333.06390380859375 501.6866760253906 333.167236328125 501.2900085449219 333.3739013671875 500.7900085449219 C 333.58056640625 500.2966613769531 333.8439025878906 499.6966552734375 334.1639099121094 498.989990234375 L 332.7239074707031 500.5 C 332.37725830078125 500.85333251953125 332.1572570800781 501.0299987792969 332.06390380859375 501.0299987792969 C 331.97723388671875 501.0299987792969 331.93389892578125 500.9800109863281 331.93389892578125 500.8800048828125 C 331.93389892578125 500.7733459472656 331.99725341796875 500.65667724609375 332.1239013671875 500.5299987792969 C 332.7172546386719 499.9366760253906 333.2305908203125 499.3666687011719 333.6639099121094 498.82000732421875 C 334.0772399902344 498.2799987792969 334.93389892578125 497.239990234375 336.2339172363281 495.70001220703125 C 336.3739013671875 495.5133361816406 336.52392578125 495.4200134277344 336.68389892578125 495.4200134277344 ZM 344.3157043457031 503.30999755859375 C 344.1423645019531 503.30999755859375 343.98236083984375 503.2866516113281 343.835693359375 503.239990234375 C 342.8157043457031 502.9533386230469 342.3056945800781 502.3766784667969 342.3056945800781 501.510009765625 C 342.3056945800781 500.3900146484375 343.009033203125 499.09332275390625 344.41571044921875 497.6199951171875 C 345.8223571777344 496.1533203125 347.085693359375 495.4200134277344 348.2056884765625 495.4200134277344 C 348.5723571777344 495.4200134277344 348.87237548828125 495.5199890136719 349.1056823730469 495.7200012207031 C 349.3390197753906 495.9200134277344 349.4556884765625 496.19000244140625 349.4556884765625 496.5299987792969 C 349.4556884765625 496.8766784667969 349.35235595703125 497.2366638183594 349.14569091796875 497.6099853515625 C 348.93902587890625 497.989990234375 348.6257019042969 498.17999267578125 348.2056884765625 498.17999267578125 C 347.7923583984375 498.17999267578125 347.585693359375 498.04998779296875 347.585693359375 497.7900085449219 C 347.585693359375 497.6166687011719 347.6923522949219 497.3500061035156 347.90570068359375 496.989990234375 C 348.1257019042969 496.6300048828125 348.2356872558594 496.4366760253906 348.2356872558594 496.4100036621094 C 348.2356872558594 496.3900146484375 348.20904541015625 496.3800048828125 348.15570068359375 496.3800048828125 C 347.70904541015625 496.4266662597656 347.0990295410156 496.7466735839844 346.32568359375 497.3399963378906 C 345.5456848144531 497.9266662597656 345.0123596191406 498.4200134277344 344.7257080078125 498.82000732421875 L 343.7956848144531 500.19000244140625 C 343.6357116699219 500.45001220703125 343.51904296875 500.7533264160156 343.4457092285156 501.1000061035156 C 343.37237548828125 501.4533386230469 343.335693359375 501.7200012207031 343.335693359375 501.8999938964844 C 343.335693359375 502.0733337402344 343.4356994628906 502.2733459472656 343.6357116699219 502.5 C 343.835693359375 502.7200012207031 344.1190185546875 502.8299865722656 344.4856872558594 502.8299865722656 C 345.28570556640625 502.8299865722656 346.2790222167969 502.36334228515625 347.4656982421875 501.42999267578125 C 348.64569091796875 500.489990234375 349.5556945800781 499.5966796875 350.1957092285156 498.75 C 350.27569580078125 498.65667724609375 350.37237548828125 498.6099853515625 350.4856872558594 498.6099853515625 C 350.5990295410156 498.6099853515625 350.65570068359375 498.6400146484375 350.65570068359375 498.70001220703125 C 350.65570068359375 498.76666259765625 350.6156921386719 498.8466796875 350.53570556640625 498.94000244140625 C 349.65570068359375 500.11334228515625 348.60235595703125 501.1333312988281 347.3757019042969 502 C 346.15570068359375 502.8733215332031 345.1357116699219 503.30999755859375 344.3157043457031 503.30999755859375 ZM 354.9775390625 502.8999938964844 C 354.0308837890625 502.8999938964844 353.5575256347656 502.3500061035156 353.5575256347656 501.25 C 353.5575256347656 500.6233215332031 353.77752685546875 499.92999267578125 354.217529296875 499.1700134277344 C 354.65753173828125 498.4100036621094 355.1975402832031 497.5199890136719 355.8375244140625 496.5 C 353.7908630371094 497.5199890136719 351.9342041015625 499.0299987792969 350.2675476074219 501.0299987792969 C 349.34088134765625 502.42333984375 348.79754638671875 503.1199951171875 348.6375427246094 503.1199951171875 C 348.17755126953125 503.1199951171875 347.9475402832031 502.98333740234375 347.9475402832031 502.7099914550781 C 347.9475402832031 502.57000732421875 348.0408630371094 502.3133239746094 348.2275390625 501.94000244140625 C 349.7808837890625 499.17333984375 350.9575500488281 497.1499938964844 351.7575378417969 495.8699951171875 C 353.6642150878906 492.8166809082031 355.0075378417969 491.1600036621094 355.78753662109375 490.8999938964844 C 355.82086181640625 490.88665771484375 355.8542175292969 490.8800048828125 355.8875427246094 490.8800048828125 C 356.0942077636719 490.8800048828125 356.237548828125 491.0466613769531 356.3175354003906 491.3800048828125 C 356.2708740234375 491.7200012207031 355.44085693359375 492.9366760253906 353.8275451660156 495.0299987792969 C 352.14752197265625 497.15667724609375 351.1942138671875 498.54998779296875 350.967529296875 499.2099914550781 C 351.5608825683594 498.77667236328125 352.5942077636719 498.0466613769531 354.0675354003906 497.0199890136719 C 355.64752197265625 495.9200134277344 356.6942138671875 495.3699951171875 357.2075500488281 495.3699951171875 C 357.7208557128906 495.3699951171875 357.9775390625 495.57000732421875 357.9775390625 495.9700012207031 C 357.9775390625 496.0299987792969 357.9742126464844 496.0733337402344 357.967529296875 496.1000061035156 C 357.9541931152344 496.1266784667969 357.39752197265625 496.8833312988281 356.29754638671875 498.3699951171875 C 355.19085693359375 499.8566589355469 354.6375427246094 500.9533386230469 354.6375427246094 501.6600036621094 C 354.6375427246094 502.02667236328125 354.7742004394531 502.2099914550781 355.04754638671875 502.2099914550781 C 355.9142150878906 502.1766662597656 357.21087646484375 501.13665771484375 358.9375305175781 499.0899963378906 C 359.0775451660156 498.9433288574219 359.1842041015625 498.8699951171875 359.2575378417969 498.8699951171875 C 359.33087158203125 498.8699951171875 359.3675231933594 498.9200134277344 359.3675231933594 499.0199890136719 C 359.3675231933594 499.3399963378906 358.57421875 500.2033386230469 356.987548828125 501.6099853515625 C 356.0008544921875 502.4700012207031 355.33087158203125 502.8999938964844 354.9775390625 502.8999938964844 Z" transform="matrix(3.7861552238464355, -1.1442673206329346, 1.1442673206329346, 3.7861552238464355, -1464.1099853515625, -1357.3397216796875)" style="fill: rgb(255, 255, 255); white-space: pre; color: rgb(51, 51, 51);"/></svg>