<?xml version="1.0" encoding="utf-8"?>
<svg id="master-artboard" viewBox="0 0 478.1250305175781 401.8750305175781" version="1.1" xmlns="http://www.w3.org/2000/svg" x="0px" y="0px" enable-background="new 0 0 1400 980" width="478.1250305175781px" height="401.8750305175781px"><rect id="ee-background" x="0" y="0" width="478.1250305175781" height="401.8750305175781" style="fill: white; fill-opacity: 0; pointer-events: none;"/>

<g transform="matrix(1, 0, 0, 1, -457.3863830566406, -519.8863487243652)">
			<path fill="#594A42" d="M554.2,718.5c0-24.7,9.5-40.2,10.1-41.2l13.1,8.3c-0.7,1.2-17.5,29.1,0.5,70.4l-14.2,6.2&#10;&#9;&#9;&#9;&#9;C556.6,745.8,554.2,731,554.2,718.5z" style="fill: rgb(51, 51, 51);"/>
		</g><path fill="#594A42" d="M516.5,716.8c0-44.6,19-72.4,20.3-74.1l12.7,8.9c-1.6,2.3-38.8,57.3,0.6,138.3l-14,6.8&#10;&#9;&#9;&#9;&#9;C521.5,766.6,516.5,739.5,516.5,716.8z" transform="matrix(1, 0, 0, 1, -457.3863830566406, -519.8863487243652)" style="fill: rgb(51, 51, 51);"/><path fill="#594A42" d="M471.1,715.3c0-62.2,28.8-100.8,30.6-103.2l12.3,9.4c-2.5,3.3-60.9,82.3,0.7,198.6l-13.7,7.3&#10;&#9;&#9;&#9;&#9;C478.6,785,471.1,747.1,471.1,715.3z" transform="matrix(1, 0, 0, 1, -457.3863830566406, -519.8863487243652)" style="fill: rgb(51, 51, 51);"/><path fill="#594A42" d="M839.3,718.5c0-24.7-9.5-40.2-10.1-41.2l-13.1,8.3c0.7,1.2,17.5,29.1-0.5,70.4l14.2,6.2&#10;&#9;&#9;&#9;&#9;C836.9,745.8,839.3,731,839.3,718.5z" transform="matrix(1, 0, 0, 1, -457.3863830566406, -519.8863487243652)" style="fill: rgb(51, 51, 51);"/><path fill="#594A42" d="M876.9,716.8c0-44.6-19-72.4-20.3-74.1l-12.7,8.9c1.6,2.3,38.8,57.3-0.6,138.3l14,6.8&#10;&#9;&#9;&#9;&#9;C872,766.6,876.9,739.5,876.9,716.8z" transform="matrix(1, 0, 0, 1, -457.3863830566406, -519.8863487243652)" style="fill: rgb(51, 51, 51);"/><path fill="#594A42" d="M922.4,715.3c0-62.2-28.8-100.8-30.6-103.2l-12.3,9.4c2.5,3.3,60.9,82.3-0.7,198.6l13.7,7.3&#10;&#9;&#9;&#9;&#9;C914.8,785,922.4,747.1,922.4,715.3z" transform="matrix(1, 0, 0, 1, -457.3863830566406, -519.8863487243652)" style="fill: rgb(51, 51, 51);"/><path fill="#594A42" d="M724.2,727.6c-1-2.3-2.5-4.4-4.3-6.2c-1.7-1.7-3.8-3.3-6.2-4.7c-2.3-1.3-4.8-2.6-7.4-3.7l-2.8-1.2v-22.9&#10;&#9;&#9;&#9;c0.7,0.1,1.4,0.3,2.1,0.4c1.2,0.3,2.2,0.6,3,1l2.1,10.7c0,1,0.4,1.9,1.2,2.5l1,0.7h5.3c0.9,0,1.8-0.4,2.4-1.2l0.7-1.2v-17.7&#10;&#9;&#9;&#9;c0-1.5-0.8-2.3-1.3-2.6l-1.1-0.5c-1.2-0.4-2.6-0.7-4.2-1l-4.5-0.8c-1.6-0.3-3.1-0.5-4.6-0.7c-0.7-0.1-1.4-0.1-2.1-0.2v-6.6&#10;&#9;&#9;&#9;c0-1.7-1.3-3-3.1-3h-4.2c-1.7,0-3,1.3-3,3v7.4c-2.3,0.5-4.5,1.2-6.6,2.1c-2.8,1.2-5.3,2.8-7.4,4.9c-2.1,2-3.9,4.4-5.1,7.1&#10;&#9;&#9;&#9;c-1.3,2.7-1.9,5.8-1.9,9.2c0,3,0.6,5.7,1.7,8.1c1.1,2.2,2.5,4.3,4.3,6c1.8,1.8,3.9,3.3,6.2,4.6c2.3,1.2,4.6,2.4,7.1,3.5l1.6,0.7&#10;&#9;&#9;&#9;v25.8c-0.2,0-0.3,0-0.5,0c-1-0.1-1.9-0.2-2.9-0.4c-1-0.2-2-0.4-2.9-0.6c-0.5-0.1-1-0.3-1.5-0.5l-1.8-10.9c0-1-0.5-2-1.3-2.5&#10;&#9;&#9;&#9;l-1-0.6h-5.3c-0.9,0-1.8,0.4-2.4,1.2l-0.7,1.2v17.7c0,1.5,0.8,2.3,1.6,2.8l0.8,0.4c2.7,0.8,5.8,1.5,9.1,2c3,0.5,6,0.8,8.9,0.9v6.4&#10;&#9;&#9;&#9;c0,1.8,1.3,3.1,3,3.1h4.2c1.8,0,3.1-1.3,3.1-3.1v-7.3c2.6-0.5,5-1.3,7.3-2.2c2.9-1.3,5.6-3,7.7-5.1c2.2-2.1,4-4.7,5.3-7.6&#10;&#9;&#9;&#9;c1.3-2.9,2-6.3,2-10C725.7,732.7,725.2,729.9,724.2,727.6z M693.2,689.6v17.2c-0.2-0.1-0.5-0.3-0.7-0.4c-1.2-0.7-2.2-1.6-3-2.5&#10;&#9;&#9;&#9;c-0.8-0.8-1.4-1.8-1.8-2.8c-0.4-1-0.6-2.1-0.6-3.3c0-1.2,0.2-2.3,0.7-3.3c0.5-1,1.1-1.9,1.9-2.7c0.8-0.8,1.8-1.4,2.9-2&#10;&#9;&#9;&#9;C692.7,689.8,692.9,689.7,693.2,689.6z M710.4,740.2c0,1.4-0.2,2.6-0.7,3.7c-0.5,1.1-1.2,2.1-2,3c-0.8,0.8-1.9,1.6-3.1,2.2&#10;&#9;&#9;&#9;c-0.4,0.2-0.7,0.3-1.1,0.5V730c0.3,0.2,0.5,0.3,0.8,0.5c1.2,0.8,2.4,1.7,3.3,2.7c0.9,0.9,1.6,2,2.1,3.1&#10;&#9;&#9;&#9;C710.2,737.5,710.4,738.8,710.4,740.2z" transform="matrix(1, 0, 0, 1, -457.3863830566406, -519.8863487243652)" style="fill: rgb(86, 165, 70);"/><path fill="#594A42" d="M780.2,624.7H612.6c-10.9,0-19.8,8.9-19.8,19.8v151.3c0,10.9,8.9,19.8,19.8,19.8h167.6&#10;&#9;&#9;&#9;c10.9,0,19.8-8.9,19.8-19.8V644.5C800,633.5,791.1,624.7,780.2,624.7z M764.5,782.8H628.4V657.4h136.1V782.8z" transform="matrix(1, 0, 0, 1, -457.3863830566406, -519.8863487243652)" style="fill: rgb(86, 165, 70);"/><path fill="#594A42" d="M668.8,531.6H724c10.1,0,18.5,7.7,19.3,17.7l5.5,63.7H644.1l5.5-63.7C650.4,539.3,658.8,531.6,668.8,531.6&#10;&#9;&#9;&#9;z" transform="matrix(1, 0, 0, 1, -457.3863830566406, -519.8863487243652)" style="fill: rgb(86, 165, 70);"/><path fill="#594A42" d="M668.8,907.9H724c10.1,0,18.5-7.7,19.3-17.7l5.5-63.7H644.1l5.5,63.7C650.4,900.2,658.8,907.9,668.8,907.9&#10;&#9;&#9;&#9;z" transform="matrix(1, 0, 0, 1, -457.3863830566406, -519.8863487243652)" style="fill: rgb(86, 165, 70);"/>

</svg>