<?xml version="1.0" encoding="utf-8"?>
<svg id="master-artboard" viewBox="0 0 219.78494262695312 219.2167510986328" version="1.1" xmlns="http://www.w3.org/2000/svg" x="0px" y="0px" enable-background="new 0 0 1400 980" width="219.78494262695312px" height="219.2167510986328px"><rect id="ee-background" x="0" y="0" width="219.78494262695312" height="219.2167510986328" style="fill: white; fill-opacity: 0; pointer-events: none;"/>
<path fill="#FFDE17" d="M1141.4,518.2c-2.2-2.2-5.8-2.2-8,0l-8.4,8.4c-7.1,7.1-18.7,7.1-25.8,0l-44.9-44.9&#10;&#9;&#9;&#9;c-7.1-7.1-7.1-18.7,0-25.8l8.4-8.4c2.2-2.2,2.2-5.8,0-8l-36.9-36.9c-2.2-2.2-5.8-2.2-8,0L996,424.5c-11.6,11.6-11.6,30.4,0,42&#10;&#9;&#9;&#9;l13,13l10.9,10.9l70.7,70.7l5.9,5.9l18,18c11.6,11.6,30.4,11.6,42,0l21.9-21.9c2.2-2.2,2.2-5.8,0-8L1141.4,518.2z" transform="matrix(1, 0, 0, 1, -975.8534812927246, -383.1462707519531)" style="fill: rgb(86, 165, 70);"/><path fill="#FFDE17" d="M1106.8,450.4c-4.6,4.6-4.6,12,0,16.6c4.6,4.6,12,4.6,16.6,0c4.6-4.6,4.6-12,0-16.6&#10;&#9;&#9;&#9;C1118.8,445.8,1111.4,445.8,1106.8,450.4z" transform="matrix(1, 0, 0, 1, -975.8534812927246, -383.1462707519531)" style="fill: rgb(51, 51, 51);"/><path fill="#FFDE17" d="M1106.2,393c-3,0.2-5.4,2.7-5.4,5.8v0c0,3.3,2.8,6,6.1,5.8c16.3-1,32.9,4.6,45.2,17&#10;&#9;&#9;&#9;c12.4,12.4,18.1,29,17,45.2c-0.2,3.3,2.5,6.1,5.8,6.1h0c3.1,0,5.6-2.4,5.8-5.4c1.2-19.5-5.6-39.3-20.4-54.2&#10;&#9;&#9;&#9;C1145.6,398.6,1125.7,391.8,1106.2,393z" transform="matrix(1, 0, 0, 1, -975.8534812927246, -383.1462707519531)" style="fill: rgb(51, 51, 51);"/><path fill="#FFDE17" d="M1151.5,473c3,0,5.5-2.3,5.8-5.3c1.3-13.5-3.2-27.4-13.5-37.7c-10.3-10.3-24.2-14.8-37.7-13.5&#10;&#9;&#9;&#9;c-3,0.3-5.3,2.8-5.3,5.8v0c0,3.5,3,6.1,6.5,5.8c10.1-1,20.6,2.4,28.3,10.1c7.7,7.7,11.1,18.2,10.1,28.3&#10;&#9;&#9;&#9;C1145.4,470,1148,473,1151.5,473z" transform="matrix(1, 0, 0, 1, -975.8534812927246, -383.1462707519531)" style="fill: rgb(51, 51, 51);"/>
</svg>