<?xml version="1.0" encoding="utf-8"?>
<svg id="master-artboard" viewBox="0 0 311.7885437011719 224.91448974609375" version="1.1" xmlns="http://www.w3.org/2000/svg" x="0px" y="0px" enable-background="new 0 0 1400 980" width="311.7885437011719px" height="224.91448974609375px"><rect id="ee-background" x="0" y="0" width="311.7885437011719" height="224.91448974609375" style="fill: white; fill-opacity: 0; pointer-events: none;"/>
<path d="M731.8,384.2c-1.7,0-3.5-0.1-5.2-0.2v75.3l96.3-55.7l21.1,11.3l-72.7,44.4h197.1L789.3,356.6&#10;&#9;&#9;&#9;C775.8,373.4,755,384.2,731.8,384.2z" transform="matrix(1, 0, 0, 1, -672.597158908844, -249.05130577087402)" style="fill: rgb(86, 165, 70);"/><path d="M 870.2999877929688 376.8999938964844 L 968.4000244140625 435.70001220703125 L 968.4000244140625 320.70001220703125 Z" transform="matrix(1, 0, 0, 1, -672.597158908844, -249.05130577087402)" style="fill: rgb(86, 165, 70);"/><path d="M805.5,310.5c0,9-1.6,17.7-4.6,25.6l49.3,25.9l118.3-62.2H804.7C805.2,303.3,805.5,306.9,805.5,310.5z" transform="matrix(1, 0, 0, 1, -672.597158908844, -249.05130577087402)" style="fill: rgb(86, 165, 70);"/>
<path d="M784.4,310.5c0-29-23.5-52.6-52.6-52.6c-29,0-52.6,23.5-52.6,52.6c0,29,23.5,52.6,52.6,52.6&#10;&#9;&#9;&#9;C760.8,363.1,784.4,339.5,784.4,310.5z M715,303.1v-7l-0.1-7c3-0.1,9.9-1.1,9.9-9.3h14v56.8h-14v-35.4&#10;&#9;&#9;&#9;C721.5,302.5,718,303.1,715,303.1z" transform="matrix(1, 0, 0, 1, -672.597158908844, -249.05130577087402)" style="fill: rgb(86, 165, 70);"/></svg>