<?xml version="1.0" encoding="utf-8"?>
<svg id="master-artboard" viewBox="0 0 354.4201354980469 466.8025207519531" version="1.1" xmlns="http://www.w3.org/2000/svg" x="0px" y="0px" enable-background="new 0 0 1400 980" width="354.4201354980469px" height="466.8025207519531px"><rect id="ee-background" x="0" y="0" width="354.4201354980469" height="466.8025207519531" style="fill: white; fill-opacity: 0; pointer-events: none;"/>
<path d="M 1109.4000244140625 280.6000061035156 L 1109.4000244140625 420.8999938964844 L 1085.699951171875 397.1000061035156 L 1085.699951171875 355.8999938964844 Z" fill="#F26522" transform="matrix(1.2407885789871216, 0, 0, 1.2407885789871216, -1323.7473917007446, -77.79064178466797)" style="fill: rgb(86, 165, 70);"/><path fill="#1F2121" d="M1112.9,429.3l-30.7-30.7v-43.2l30.7-97.6V429.3z M1089.2,395.7l16.7,16.7V303.3l-16.7,53.1V395.7z" transform="matrix(1.2407885789871216, 0, 0, 1.2407885789871216, -1323.7473917007446, -77.79064178466797)" style="fill: rgb(51, 51, 51);"/><g transform="matrix(1.2407885789871216, 0, 0, 1.2407885789871216, -1323.7473917007446, -77.79064178466797)">
			<path d="M 1161.5 254.60000610351562 L 1109.4000244140625 331.8999938964844 L 1109.4000244140625 385.1000061035156 L 1161.5 330.79998779296875 Z" fill="#0A82A3" transform="matrix(0.9999999999999999, 0, 0, 0.9999999999999999, -0.00012797749013770954, 0)" style="fill: rgb(86, 165, 70);"/>
			<path fill="#1F2121" d="M1105.9,393.8v-63l59.1-87.6v89L1105.9,393.8z M1112.9,332.9v43.5l45.1-47.1v-63.3L1112.9,332.9z" style="fill: rgb(51, 51, 51);"/>
		</g><path d="M 1233.699951171875 172.3000030517578 L 1208.800048828125 89.5999984741211 L 1184 172.3000030517578 L 1161.5 254.60000610351562 L 1161.5 330.79998779296875 L 1208.800048828125 380.3999938964844 L 1256.0999755859375 330.79998779296875 L 1256.0999755859375 254.60000610351562 Z" fill="#F26522" transform="matrix(1.2407885789871216, 0, 0, 1.2407885789871216, -1323.7473917007446, -77.79064178466797)" style="fill: rgb(86, 165, 70);"/><path fill="#1F2121" d="M1208.8,385.5l-50.8-53.3v-78l0.1-0.5l22.5-82.3l28.2-94l28.2,93.9l22.6,82.8v78L1208.8,385.5z&#10;&#9;&#9;&#9;&#9; M1165,329.4l43.8,46l43.8-46v-74.3l-22.3-81.8l-21.4-71.5l-21.5,71.6l-22.3,81.7V329.4z" transform="matrix(1.2407885789871216, 0, 0, 1.2407885789871216, -1323.7473917007446, -77.79064178466797)" style="fill: rgb(51, 51, 51);"/><path d="M 1227.800048828125 263.8999938964844 L 1208.800048828125 231.3000030517578 L 1189.9000244140625 263.8999938964844 L 1172.699951171875 296.3999938964844 L 1172.699951171875 326.5 L 1208.800048828125 346.1000061035156 L 1245 326.5 L 1245 296.3999938964844 Z" fill="#0A82A3" transform="matrix(1.2407885789871216, 0, 0, 1.2407885789871216, -1323.7473917007446, -77.79064178466797)" style="fill: rgb(86, 165, 70);"/><path fill="#1F2121" d="M1161.2,242.5l25.4-91.5l14.4,27.5l-10.3,46.3L1161.2,242.5z M1188.6,170l-15.9,57.5l11.8-7.1l9.1-40.9&#10;&#9;&#9;&#9;&#9;L1188.6,170z" transform="matrix(1.2407885789871216, 0, 0, 1.2407885789871216, -1323.7473917007446, -77.79064178466797)" style="fill: rgb(51, 51, 51);"/><path d="M 1187.5 160.5 L 1197.199951171875 179 L 1187.5 222.60000610351562 L 1166.9000244140625 235 Z" fill="#0A82A3" transform="matrix(1.2407885789871216, 0, 0, 1.2407885789871216, -1323.7473917007446, -77.79064178466797)" style="fill: rgb(86, 165, 70);"/><path fill="#1F2121" d="M1256.5,242.5l-29.5-17.7l-10.3-46.3l14.4-27.5L1256.5,242.5z M1233.2,220.4l11.8,7.1l-15.9-57.5l-5,9.5&#10;&#9;&#9;&#9;&#9;L1233.2,220.4z" transform="matrix(1.2407885789871216, 0, 0, 1.2407885789871216, -1323.7473917007446, -77.79064178466797)" style="fill: rgb(51, 51, 51);"/><path fill="#1F2121" d="M1208.8,350.1l-39.6-21.5v-33l17.6-33.4l22-37.9l22.1,38l17.6,33.3v33L1208.8,350.1z M1176.2,324.4&#10;&#9;&#9;&#9;&#9;l32.6,17.7l32.6-17.7v-27.1l-16.7-31.7l-15.9-27.4l-15.9,27.4l-16.7,31.7V324.4z" transform="matrix(1.2407885789871216, 0, 0, 1.2407885789871216, -1323.7473917007446, -77.79064178466797)" style="fill: rgb(51, 51, 51);"/><path d="M 1256.0999755859375 254.60000610351562 L 1308.199951171875 331.8999938964844 L 1308.199951171875 385.1000061035156 L 1256.0999755859375 330.79998779296875 Z" fill="#0A82A3" transform="matrix(1.2407885789871216, 0, 0, 1.2407885789871216, -1323.7473917007446, -77.79064178466797)" style="fill: rgb(86, 165, 70);"/><path fill="#1F2121" d="M1311.7,393.8l-59.1-61.7v-89l59.1,87.6V393.8z M1259.6,329.3l45.1,47.1v-43.5l-45.1-66.9V329.3z" transform="matrix(1.2407885789871216, 0, 0, 1.2407885789871216, -1323.7473917007446, -77.79064178466797)" style="fill: rgb(51, 51, 51);"/><path d="M 1308.199951171875 280.6000061035156 L 1308.199951171875 420.8999938964844 L 1332 397.1000061035156 L 1332 355.8999938964844 Z" fill="#F26522" transform="matrix(1.2407885789871216, 0, 0, 1.2407885789871216, -1323.7473917007446, -77.79064178466797)" style="fill: rgb(86, 165, 70);"/><path fill="#1F2121" d="M1304.7,429.3V257.8l30.7,97.6v43.2L1304.7,429.3z M1311.7,303.3v109.1l16.7-16.7v-39.2L1311.7,303.3z" transform="matrix(1.2407885789871216, 0, 0, 1.2407885789871216, -1323.7473917007446, -77.79064178466797)" style="fill: rgb(51, 51, 51);"/><path d="M 1230.0999755859375 160.5 L 1220.4000244140625 179 L 1230.0999755859375 222.60000610351562 L 1250.800048828125 235 Z" fill="#0A82A3" transform="matrix(1.2407885789871216, 0, 0, 1.2407885789871216, -1323.7473917007446, -77.79064178466797)" style="fill: rgb(86, 165, 70);"/><path d="M 1205.300049 89.599998 H 1212.300049 V 163.099998 H 1205.300049 V 89.599998 Z" fill="#1F2121" transform="matrix(1.2407885789871216, 0, 0, 1.2407885789871216, -1323.7473917007446, -77.79064178466797)" style="fill: rgb(51, 51, 51);"/><path d="M 1205.300049 170.800003 H 1212.300049 V 183.700003 H 1205.300049 V 170.800003 Z" fill="#1F2121" transform="matrix(1.2407885789871216, 0, 0, 1.2407885789871216, -1323.7473917007446, -77.79064178466797)" style="fill: rgb(51, 51, 51);"/><path d="M 1205.300049 193.5 H 1212.300049 V 202.8 H 1205.300049 V 193.5 Z" fill="#1F2121" transform="matrix(1.2407885789871216, 0, 0, 1.2407885789871216, -1323.7473917007446, -77.79064178466797)" style="fill: rgb(51, 51, 51);"/><path d="M 1145.5 278.29998779296875 L 1145.5 298.8999938964844 L 1134.199951171875 315 L 1119.5999755859375 316.79998779296875 Z" fill="#F26522" transform="matrix(1.2407885789871216, 0, 0, 1.2407885789871216, -1323.7473917007446, -77.79064178466797)" style="fill: rgb(86, 165, 70);"/><path fill="#1F2121" d="M1112.3,321.3l36.7-54.4V300l-12.9,18.3L1112.3,321.3z M1142,289.8l-15.3,22.6l5.5-0.7l9.8-13.9V289.8z" transform="matrix(1.2407886981964111, 0, 0, 1.2407886981964111, -1321.3445596694946, -80.19365692138672)" style="fill: rgb(51, 51, 51);"/><path d="M 1272.0999755859375 278.29998779296875 L 1272.0999755859375 298.8999938964844 L 1283.4000244140625 315 L 1298.0999755859375 316.79998779296875 Z" fill="#F26522" transform="matrix(1.2407885789871216, 0, 0, 1.2407885789871216, -1323.7473917007446, -77.79064178466797)" style="fill: rgb(86, 165, 70);"/><path fill="#1F2121" d="M1305.3,321.3l-23.8-3l-12.9-18.3v-33.1L1305.3,321.3z M1285.4,311.7l5.5,0.7l-15.3-22.6v8L1285.4,311.7z&#10;&#9;&#9;&#9;&#9;" transform="matrix(1.2407885789871216, 0, 0, 1.2407885789871216, -1324.5484170913696, -77.79064178466797)" style="fill: rgb(51, 51, 51);"/>
</svg>